<?xml version="1.0" encoding="UTF-8" standalone="no"?>
<svg width="108px" height="109px" viewBox="0 0 108 109" version="1.1" xmlns="http://www.w3.org/2000/svg" xmlns:xlink="http://www.w3.org/1999/xlink" xmlns:sketch="http://www.bohemiancoding.com/sketch/ns">
    <!-- Generator: Sketch 3.2.2 (9983) - http://www.bohemiancoding.com/sketch -->
    <title>button-questionmark@2x</title>
    <desc>Created with Sketch.</desc>
    <defs>
        <filter x="-50%" y="-50%" width="200%" height="200%" filterUnits="objectBoundingBox" id="filter-1">
            <feOffset dx="0" dy="1" in="SourceAlpha" result="shadowOffsetOuter1"></feOffset>
            <feGaussianBlur stdDeviation="2" in="shadowOffsetOuter1" result="shadowBlurOuter1"></feGaussianBlur>
            <feColorMatrix values="0 0 0 0 0   0 0 0 0 0   0 0 0 0 0  0 0 0 0.35 0" in="shadowBlurOuter1" type="matrix" result="shadowMatrixOuter1"></feColorMatrix>
            <feMerge>
                <feMergeNode in="shadowMatrixOuter1"></feMergeNode>
                <feMergeNode in="SourceGraphic"></feMergeNode>
            </feMerge>
        </filter>
        <circle id="path-2" cx="50" cy="50" r="50"></circle>
        <linearGradient x1="12.5919236%" y1="-16.4037587%" x2="55.2851741%" y2="66.1867653%" id="linearGradient-4">
            <stop stop-color="#000000" offset="0%"></stop>
            <stop stop-color="#000000" stop-opacity="0" offset="100%"></stop>
        </linearGradient>
        <linearGradient x1="10.152575%" y1="5.78047734%" x2="63.73561%" y2="68.1960846%" id="linearGradient-5">
            <stop stop-color="#000000" offset="0%"></stop>
            <stop stop-color="#000000" stop-opacity="0" offset="100%"></stop>
        </linearGradient>
        <linearGradient x1="12.5919236%" y1="-16.4037587%" x2="59.8815567%" y2="65.699562%" id="linearGradient-6">
            <stop stop-color="#000000" offset="0%"></stop>
            <stop stop-color="#000000" stop-opacity="0" offset="100%"></stop>
        </linearGradient>
    </defs>
    <g id="--styleguide" stroke="none" stroke-width="1" fill="none" fill-rule="evenodd" sketch:type="MSPage">
        <g id="--exported-assets" sketch:type="MSArtboardGroup" transform="translate(-57.000000, -438.000000)">
            <g id="Question-Mark-Navigation" sketch:type="MSLayerGroup" transform="translate(59.000000, 393.000000)">
                <g id="button-questionmark" transform="translate(2.000000, 48.500000)">
                    <mask id="mask-3" sketch:name="Path" fill="white">
                        <use xlink:href="#path-2"></use>
                    </mask>
                    <use id="Path" fill="#4990E2" filter="url(#filter-1)" sketch:type="MSShapeGroup" xlink:href="#path-2"></use>
                    <path d="M23,40 L58.6879883,17.2246094 L72.2006836,44.8544922 L42.1933594,68.9794922 L23,40 Z" id="vv" fill-opacity="0.75999999" fill="url(#linearGradient-4)" sketch:type="MSShapeGroup" mask="url(#mask-3)"></path>
                    <path d="M27.8769531,93.2558594 L55.3769531,72.2509766 L72.2006836,96.609375 L48.6269531,115.5 L27.8769531,93.2558594 Z" id="vv-3" fill-opacity="0.649999976" fill="url(#linearGradient-5)" sketch:type="MSShapeGroup" mask="url(#mask-3)"></path>
                    <path d="M55.2011719,74.8701172 L48.0761719,77.9902344 L41.8481445,69.1252441 L70.6879883,22.2167969 L108.586426,77.9902344 L73.3261719,100 L55.2011719,74.8701172 Z" id="vv-2" fill-opacity="0.5" fill="url(#linearGradient-6)" sketch:type="MSShapeGroup" mask="url(#mask-3)"></path>
                    <path d="M71.1771596,48.7525196 C69.8524724,50.3191293 68.3868782,51.6539036 66.7770697,52.7567425 C65.1673614,53.861177 63.6464466,54.964016 62.2160291,56.0668549 C60.784008,57.1712894 59.5146415,58.4343691 58.406326,59.8574901 C57.2962065,61.2823062 56.5985861,63.0608086 56.3135649,65.1963875 L56.3135649,68.8009559 C54.239745,68.3995065 52.0433581,68.1882122 49.7410403,68.1882122 C46.9350246,68.1882122 44.2862517,68.5014144 41.8255888,69.0918222 L41.8255888,64.4489299 C42.0402567,61.3891001 42.630443,58.8264453 43.5963481,56.7608657 C44.5622533,54.6970811 45.689009,52.935231 46.9768157,51.4754151 C48.2647227,50.0171948 49.622983,48.7525196 51.055004,47.68478 C52.4853213,46.6169407 53.8083047,45.5492011 55.0257581,44.4813618 C56.2415078,43.4136222 57.2257529,42.2390887 57.9769902,40.9576616 C58.7282275,39.6763342 59.0669658,38.0747248 58.9965123,36.152634 C58.9965123,32.8792164 58.1916581,30.4583552 56.5818496,28.8917455 C54.9721413,27.3267312 52.7351659,26.5425788 49.874431,26.5425788 C47.9427209,26.5425788 46.2792955,26.9163076 44.8841548,27.6637652 C43.4890142,28.4112228 42.3437181,29.408963 41.4499702,30.6535956 C40.5545186,31.8999233 39.8938787,33.3597391 39.464543,35.0315473 C39.0353075,36.7049509 38.8206396,38.5018007 38.8206396,40.4237918 L23.0448568,40.4237918 C23.1153104,36.5798096 23.7776539,33.0561094 25.030284,29.8527909 C26.2812104,26.6493727 28.035133,23.8731301 30.2888449,21.5240631 C32.5425568,19.1748964 35.2606808,17.3429472 38.445021,16.024925 C41.6277576,14.7085979 45.1877165,14.0495868 49.1231937,14.0495868 C54.2023636,14.0495868 58.4415026,14.7435976 61.8405106,16.1317189 C65.2377147,17.5198402 67.9743792,19.2465909 70.0503036,21.3104753 C72.1246245,23.3759551 73.6085587,25.5999805 74.5040103,27.9841469 C75.3977582,30.3699087 75.8455341,32.5939341 75.8455341,34.6578185 C75.8455341,38.0747248 75.3977582,40.8876622 74.5040103,43.0932405 C73.6085587,45.3006136 72.5002432,47.1876051 71.1771596,48.7525196 Z M49.7410403,70.681067 C65.5542045,70.681067 76.4064566,80.580792 76.4064566,94.4768624 C76.4064566,108.281994 65.6576299,118.181818 49.7410403,118.181818 C33.8244506,118.181818 23.0755237,108.281994 23.0755237,94.4768624 C23.0755237,80.580792 33.9277758,70.681067 49.7410403,70.681067 Z M49.7410403,106.919698 C57.1825588,106.919698 61.7301702,100.471181 61.7301702,94.4768624 C61.7301702,88.3007646 57.1825588,81.943187 49.7410403,81.943187 C42.2995217,81.943187 37.7519104,88.3007646 37.7519104,94.4768624 C37.7519104,100.471181 42.2995217,106.919698 49.7410403,106.919698 Z" id="Polygon-2" fill="#FFFFFF" sketch:type="MSShapeGroup" mask="url(#mask-3)"></path>
                </g>
            </g>
        </g>
    </g>
</svg>