<?xml version="1.0" encoding="UTF-8" standalone="no"?>
<svg width="610px" height="340px" viewBox="0 0 610 340" version="1.1" xmlns="http://www.w3.org/2000/svg" xmlns:xlink="http://www.w3.org/1999/xlink" xmlns:sketch="http://www.bohemiancoding.com/sketch/ns">
    <!-- Generator: Sketch 3.2.2 (9983) - http://www.bohemiancoding.com/sketch -->
    <title>feed-imageLoading</title>
    <desc>Created with Sketch.</desc>
    <defs>
        <rect id="path-1" x="0" y="0" width="610" height="340"></rect>
    </defs>
    <g id="--styleguide" stroke="none" stroke-width="1" fill="none" fill-rule="evenodd" sketch:type="MSPage">
        <g id="--exported-assets" sketch:type="MSArtboardGroup" transform="translate(-64.000000, -689.000000)">
            <g id="Feed" sketch:type="MSLayerGroup" transform="translate(64.000000, 627.000000)">
                <g id="feed-imageLoading" transform="translate(0.000000, 62.000000)">
                    <mask id="mask-2" sketch:name="Rectangle" fill="white">
                        <use xlink:href="#path-1"></use>
                    </mask>
                    <g id="Rectangle">
                        <use fill="#ECF0F4" fill-rule="evenodd" sketch:type="MSShapeGroup" xlink:href="#path-1"></use>
                        <use fill="none" xlink:href="#path-1"></use>
                    </g>
                    <path d="M387.470786,156.722674 C382.366298,162.759375 376.718845,167.902732 370.515683,172.152361 C364.312908,176.408138 358.452285,180.657766 352.940381,184.907395 C347.422297,189.163171 342.530979,194.030264 338.260247,199.514053 C333.982564,205.004373 331.294386,211.857572 330.196098,220.086713 L330.196098,233.97639 C322.204937,232.429463 313.741481,231.615271 304.869837,231.615271 C294.057266,231.615271 283.850607,232.82215 274.368803,235.0972 L274.368803,217.206494 C275.195994,205.415888 277.47019,195.541072 281.192165,187.581664 C284.914139,179.629172 289.255927,172.84014 294.218302,167.214953 C299.181063,161.595915 304.41492,156.722674 309.933004,152.608296 C315.444522,148.493533 320.542445,144.379155 325.233724,140.264392 C329.918437,136.150014 333.711082,131.624121 336.605865,126.686329 C339.500648,121.748922 340.805926,115.577354 340.534444,108.170858 C340.534444,95.5572227 337.433056,86.2287882 331.229894,80.1920869 C325.027119,74.1615334 316.407261,71.1399167 305.383838,71.1399167 C297.940276,71.1399167 291.53051,72.580026 286.154539,75.4602445 C280.778569,78.340463 276.365338,82.185109 272.921411,86.9811185 C269.470919,91.78366 266.92524,97.4088466 265.270858,103.850915 C263.616862,110.299131 262.789671,117.223029 262.789671,124.62914 L202,124.62914 C202.271482,109.816917 204.823726,96.2388539 209.650553,83.8953348 C214.470815,71.5514314 221.229299,60.8535867 229.913648,51.8018008 C238.597997,42.7496306 249.07189,35.6904825 261.342279,30.6116767 C273.606489,25.5394029 287.32427,23 302.489055,23 C322.060893,23 338.395795,25.674269 351.493375,31.0231914 C364.584004,36.3721137 375.12934,43.0258949 383.128611,50.9787714 C391.121703,58.9377957 396.839827,67.5077522 400.290318,76.6947885 C403.734245,85.8879726 405.459684,94.457929 405.459684,102.410806 C405.459684,115.577354 403.734245,126.416597 400.290318,134.91547 C396.839827,143.421259 392.569095,150.692505 387.470786,156.722674 Z M304.869837,241.221123 C365.803551,241.221123 407.621117,279.368264 407.621117,332.914738 C407.621117,386.110791 366.202086,424.258317 304.869837,424.258317 C243.537587,424.258317 202.11817,386.110791 202.11817,332.914738 C202.11817,279.368264 243.935736,241.221123 304.869837,241.221123 Z M304.869837,380.861385 C333.544639,380.861385 351.068194,356.012969 351.068194,332.914738 C351.068194,309.116049 333.544639,284.618054 304.869837,284.618054 C276.195034,284.618054 258.671479,309.116049 258.671479,332.914738 C258.671479,356.012969 276.195034,380.861385 304.869837,380.861385 Z" id="feed-imageLoading-questionmark" opacity="0.2" fill="#A1ADBB" sketch:type="MSShapeGroup" mask="url(#mask-2)"></path>
                </g>
            </g>
        </g>
    </g>
</svg>