<?xml version="1.0" encoding="UTF-8" standalone="no"?>
<svg width="38px" height="40px" viewBox="0 0 38 40" version="1.1" xmlns="http://www.w3.org/2000/svg" xmlns:xlink="http://www.w3.org/1999/xlink" xmlns:sketch="http://www.bohemiancoding.com/sketch/ns">
    <!-- Generator: Sketch 3.2.2 (9983) - http://www.bohemiancoding.com/sketch -->
    <title>header-filter</title>
    <desc>Created with Sketch.</desc>
    <defs></defs>
    <g id="--styleguide" stroke="none" stroke-width="1" fill="none" fill-rule="evenodd" sketch:type="MSPage">
        <g id="--exported-assets" sketch:type="MSArtboardGroup" transform="translate(-481.000000, -117.000000)" fill="#FFFFFF">
            <g id="Header-Navigation" sketch:type="MSLayerGroup" transform="translate(65.000000, 65.000000)">
                <g id="header-filter" transform="translate(416.000000, 51.000000)" sketch:type="MSShapeGroup">
                    <path d="M33.44,0.999525719 L31.92,0.999525719 L31.92,11.876372 C29.34664,12.2500626 27.36,14.4615757 27.36,17.1585802 C27.36,19.8571163 29.34664,22.0670979 31.92,22.4407885 L31.92,40.9992194 L33.44,40.9992194 L33.44,22.4407885 C36.01336,22.0670979 38,19.8571163 38,17.1585802 C38,14.4615757 36.01336,12.2500626 33.44,11.876372 L33.44,0.999525719 Z M19.76,0.999832023 L18.24,0.999832023 L18.24,22.5192022 C15.66664,22.8928928 13.68,25.1044059 13.68,27.8014105 C13.68,30.4999465 15.66664,32.7099281 18.24,33.0836187 L18.24,40.9995257 L19.76,40.9995257 L19.76,33.0836187 C22.33336,32.7099281 24.32,30.4999465 24.32,27.8014105 C24.32,25.1044059 22.33336,22.8928928 19.76,22.5192022 L19.76,0.999832023 Z M6.08,0.999832023 L4.56,0.999832023 L4.56,5.67249579 C1.98664,6.04618637 0,8.25769947 0,10.954704 C0,13.6532401 1.98664,15.8632217 4.56,16.2369123 L4.56,40.9995257 L6.08,40.9995257 L6.08,16.2369123 C8.65336,15.8632217 10.64,13.6532401 10.64,10.954704 C10.64,8.25769947 8.65336,6.04618637 6.08,5.67249579 L6.08,0.999832023 Z" id="Fill-3038"></path>
                </g>
            </g>
        </g>
    </g>
</svg>