<?xml version="1.0" encoding="UTF-8" standalone="no"?>
<svg width="255px" height="46px" viewBox="0 0 255 46" version="1.1" xmlns="http://www.w3.org/2000/svg" xmlns:xlink="http://www.w3.org/1999/xlink" xmlns:sketch="http://www.bohemiancoding.com/sketch/ns">
    <!-- Generator: Sketch 3.2.2 (9983) - http://www.bohemiancoding.com/sketch -->
    <title>header-HSW-logo</title>
    <desc>Created with Sketch.</desc>
    <defs></defs>
    <g id="--styleguide" stroke="none" stroke-width="1" fill="none" fill-rule="evenodd" sketch:type="MSPage">
        <g id="--exported-assets" sketch:type="MSArtboardGroup" transform="translate(-65.000000, -110.000000)" fill="#4A90E2">
            <g id="Header-Navigation" sketch:type="MSLayerGroup" transform="translate(65.000000, 65.000000)">
                <g id="header-HSW-logo" transform="translate(0.000000, 45.500000)" sketch:type="MSShapeGroup">
                    <path d="M144.598157,30.4859995 L144.598157,44.2340469 L139.542015,44.2340469 L139.542015,30.4859995 L137.579434,30.4859995 L137.579434,26.1425413 L139.542015,26.1425413 L139.542015,20.3329684 C139.542015,17.2435663 140.169044,15.6119628 141.965304,14.1525009 C143.260109,13.0647653 144.889218,12.4394004 146.60315,12.4394004 C147.647642,12.4394004 148.107518,12.5641408 149.277582,13.0647653 L149.277582,17.7042739 C148.064275,17.1179943 147.689222,17.0323393 146.937454,17.0323393 C145.265933,17.0323393 144.598157,18.1633183 144.598157,21.0855684 L144.598157,26.1425413 L149.277582,26.1425413 L149.277582,30.4859995 L144.598157,30.4859995 Z M131.438884,30.4859995 L131.438884,44.2340469 L126.382742,44.2340469 L126.382742,30.4859995 L124.41933,30.4859995 L124.41933,26.1425413 L126.382742,26.1425413 L126.382742,20.3329684 C126.382742,17.2435663 127.009771,15.6119628 128.806031,14.1525009 C130.100836,13.0647653 131.729945,12.4394004 133.443045,12.4394004 C134.489201,12.4394004 134.949077,12.5641408 136.118309,13.0647653 L136.118309,17.7042739 C134.905002,17.1179943 134.529949,17.0323393 133.778181,17.0323393 C132.107492,17.0323393 131.438884,18.1633183 131.438884,21.0855684 L131.438884,26.1425413 L136.118309,26.1425413 L136.118309,30.4859995 L131.438884,30.4859995 Z M108.917433,26.1425413 L108.917433,36.3787326 C108.917433,39.0914189 110.170658,40.5126271 112.594778,40.5126271 C115.018067,40.5126271 116.271291,39.0914189 116.271291,36.3787326 L116.271291,26.1425413 L121.370676,26.1425413 L121.370676,37.2136612 C121.370676,42.1026505 118.193956,44.817 112.594778,44.817 C106.997264,44.817 103.863787,42.1026505 103.863787,37.2136612 L103.863787,26.1425413 L108.917433,26.1425413 Z M97.679993,30.4859995 L97.679993,44.2340469 L92.6255149,44.2340469 L92.6255149,30.4859995 L90.6196904,30.4859995 L90.6196904,26.1425413 L92.6255149,26.1425413 L92.6255149,19.9579158 L97.679993,19.9579158 L97.679993,26.1425413 L101.231766,26.1425413 L101.231766,30.4859995 L97.679993,30.4859995 Z M87.7024299,27.3957658 L85.1968125,30.3620908 C84.1090769,29.5263306 83.190988,29.1479516 82.1880758,29.1479516 C81.1020033,29.1479516 80.2662431,29.8182229 80.2662431,30.6548147 C80.2662431,31.5313235 80.7261192,31.8664591 83.1069962,32.7013877 C87.3689574,34.2057561 88.6221819,35.4997291 88.6221819,38.3404822 C88.6221819,42.143399 85.4878733,44.817 81.0604232,44.817 C78.4275707,44.817 75.9202901,43.7317591 74.1656095,41.8107581 L76.8400421,38.717198 C78.2595871,40.1799862 79.597635,40.849426 81.1020033,40.849426 C82.396808,40.849426 83.3997202,40.0103394 83.3997202,38.8851816 C83.3997202,37.7991091 82.8982641,37.423225 80.5997156,36.5866331 C76.3377544,35.0406847 75.3356738,34.0369408 75.3356738,31.2818428 C75.3356738,27.853147 78.0084432,25.4731015 81.81136,25.4731015 C84.0674967,25.4731015 85.9477493,26.0577179 87.7024299,27.3957658 Z M254.080248,27.3957658 L251.574631,30.3620908 C250.486895,29.5263306 249.569638,29.1479516 248.566725,29.1479516 C247.480653,29.1479516 246.64323,29.8182229 246.64323,30.6548147 C246.64323,31.5313235 247.103106,31.8664591 249.484814,32.7013877 C253.746776,34.2057561 255,35.4997291 255,38.3404822 C255,42.143399 251.867355,44.817 247.438241,44.817 C244.805389,44.817 242.299771,43.7317591 240.543428,41.8107581 L243.218692,38.717198 C244.638237,40.1799862 245.975453,40.849426 247.480653,40.849426 C248.775458,40.849426 249.77837,40.0103394 249.77837,38.8851816 C249.77837,37.7991091 249.276082,37.423225 246.979197,36.5866331 C242.717236,35.0406847 241.714323,34.0369408 241.714323,31.2818428 C241.714323,27.853147 244.387093,25.4731015 248.19001,25.4731015 C250.44781,25.4731015 252.326399,26.0577179 254.080248,27.3957658 Z M226.09434,12.9383617 L226.09434,32.7437994 L232.864413,26.1425413 L239.715152,26.1425413 L231.234473,34.0818474 L240.384592,44.2340469 L233.447366,44.2340469 L226.638207,36.4602296 L226.09434,37.004929 L226.09434,44.2340469 L221.040693,44.2340469 L221.040693,12.9383617 L226.09434,12.9383617 Z M206.834433,26.1425413 L211.889743,26.1425413 L211.889743,28.8568908 C213.184547,26.5974277 214.856068,25.5562617 217.194533,25.5562617 C217.991208,25.5562617 218.408672,25.6402536 219.367509,25.9753892 L218.657321,30.7371434 C217.696821,30.2356872 217.279356,30.1109469 216.276444,30.1109469 C213.310119,30.1109469 211.889743,31.8664591 211.889743,35.543804 L211.889743,44.2340469 L206.834433,44.2340469 L206.834433,26.1425413 Z M156.170733,26.1425413 L160.934982,36.5866331 L165.86472,25.6402536 L168.036033,25.6402536 L172.966602,36.7512904 L177.856423,26.1425413 L183.495518,26.1425413 L174.137498,44.6090995 L171.796538,44.6090995 L166.909212,33.578728 L162.103383,44.6090995 L159.764086,44.6090995 L150.489227,26.1425413 L156.170733,26.1425413 Z M46.4632774,26.1425413 L51.2266948,36.5866331 L56.1564325,25.6402536 L58.329409,25.6402536 L63.2583152,36.7512904 L68.1464729,26.1425413 L73.7880621,26.1425413 L64.4292111,44.6090995 L62.0890825,44.6090995 L57.2017565,33.578728 L52.3959274,44.6090995 L50.0557989,44.6090995 L40.7809397,26.1425413 L46.4632774,26.1425413 Z M0,12.9383617 L5.0553097,12.9383617 L5.0553097,28.4810066 C6.64283827,26.3928535 8.27277856,25.5562617 10.7376474,25.5562617 C12.8682123,25.5562617 14.831625,26.3496102 16.0008577,27.7708184 C17.0860985,29.0248745 17.4220658,30.2747725 17.4220658,32.8693714 L17.4220658,44.2340469 L12.3659245,44.2340469 L12.3659245,34.3321596 C12.3659245,31.1130276 11.4062556,29.8614663 8.89897501,29.8614663 C6.3085342,29.8614663 5.0553097,31.4905749 5.0553097,34.9575245 L5.0553097,44.2340469 L0,44.2340469 L0,12.9383617 Z M190.770373,22.5990844 L190.770373,21.2826581 C190.770373,14.4776574 198.085146,13.7125834 198.085146,8.61070396 C198.085146,6.31298711 196.427763,5.25269432 194.59907,5.25269432 C192.132538,5.25269432 190.943347,6.82442246 190.943347,9.20613112 L190.943347,9.71673487 L185.073067,9.71673487 C185.073067,3.72005149 188.815277,0.0626650698 194.766222,0.0626650698 C199.573714,0.0626650698 204.208233,2.70050721 204.208233,8.56912385 C204.208233,15.8822335 196.639822,16.6448127 196.639822,21.7059436 L196.639822,22.5990844 L190.770373,22.5990844 Z M183.103001,35.2094999 C183.103001,29.4839189 187.322551,25.5562617 193.466428,25.5562617 C199.565398,25.5562617 203.784948,29.4839189 203.784948,35.165425 C203.784948,40.849426 199.523818,44.817 193.466428,44.817 C187.322551,44.817 183.103001,40.8910061 183.103001,35.2094999 Z M188.327126,35.2094999 C188.327126,37.9637664 190.62318,40.263978 193.423184,40.263978 C196.263937,40.263978 198.563318,38.0078413 198.563318,35.2094999 C198.563318,32.3670836 196.263937,30.1109469 193.423184,30.1109469 C190.62318,30.1109469 188.327126,32.4078322 188.327126,35.2094999 Z M20.4715511,35.2094999 C20.4715511,29.4839189 24.6911006,25.5562617 30.8341459,25.5562617 C36.933948,25.5562617 41.1534975,29.4839189 41.1534975,35.165425 C41.1534975,40.849426 36.8931995,44.817 30.8341459,44.817 C24.6911006,44.817 20.4715511,40.8910061 20.4715511,35.2094999 Z M25.6948444,35.2094999 C25.6948444,37.9637664 27.9925612,40.263978 30.7917342,40.263978 C33.6316557,40.263978 35.9310357,38.0078413 35.9310357,35.2094999 C35.9310357,32.3670836 33.6316557,30.1109469 30.7917342,30.1109469 C27.9925612,30.1109469 25.6948444,32.4078322 25.6948444,35.2094999 Z" id="hsw-logo"></path>
                </g>
            </g>
        </g>
    </g>
</svg>