<?xml version="1.0" encoding="UTF-8" standalone="no"?>
<svg width="39px" height="39px" viewBox="0 0 39 39" version="1.1" xmlns="http://www.w3.org/2000/svg" xmlns:xlink="http://www.w3.org/1999/xlink" xmlns:sketch="http://www.bohemiancoding.com/sketch/ns">
    <!-- Generator: Sketch 3.2.2 (9983) - http://www.bohemiancoding.com/sketch -->
    <title>header-context</title>
    <desc>Created with Sketch.</desc>
    <defs></defs>
    <g id="--styleguide" stroke="none" stroke-width="1" fill="none" fill-rule="evenodd" sketch:type="MSPage">
        <g id="--exported-assets" sketch:type="MSArtboardGroup" transform="translate(-385.000000, -117.000000)" fill="#FFFFFF">
            <g id="Header-Navigation" sketch:type="MSLayerGroup" transform="translate(65.000000, 65.000000)">
                <g id="header-context" transform="translate(320.000000, 52.000000)" sketch:type="MSShapeGroup">
                    <path d="M33.4065934,0 L27.8388278,0 C24.7640293,0 22.2710623,2.49296703 22.2710623,5.56776557 L22.2710623,11.1355311 C22.2710623,14.2103297 24.7640293,16.7032967 27.8388278,16.7032967 L33.4065934,16.7032967 C36.4813919,16.7032967 38.974359,14.2103297 38.974359,11.1355311 L38.974359,5.56776557 C38.974359,2.49296703 36.4813919,0 33.4065934,0 L33.4065934,0 Z M33.4065934,22.2710623 L27.8388278,22.2710623 C24.7640293,22.2710623 22.2710623,24.7640293 22.2710623,27.8388278 L22.2710623,33.4065934 C22.2710623,36.4813919 24.7640293,38.974359 27.8388278,38.974359 L33.4065934,38.974359 C36.4813919,38.974359 38.974359,36.4813919 38.974359,33.4065934 L38.974359,27.8388278 C38.974359,24.7640293 36.4813919,22.2710623 33.4065934,22.2710623 L33.4065934,22.2710623 Z M11.1355311,0 L5.56776557,0 C2.49296703,0 0,2.49296703 0,5.56776557 L0,11.1355311 C0,14.2103297 2.49296703,16.7032967 5.56776557,16.7032967 L11.1355311,16.7032967 C14.2103297,16.7032967 16.7032967,14.2103297 16.7032967,11.1355311 L16.7032967,5.56776557 C16.7032967,2.49296703 14.2103297,0 11.1355311,0 L11.1355311,0 Z M10.3235653,2.43589744 L6.37973138,2.43589744 C4.20174908,2.43589744 2.43589744,4.20174908 2.43589744,6.37973138 L2.43589744,10.3235653 C2.43589744,12.5015476 4.20174908,14.2673993 6.37973138,14.2673993 L10.3235653,14.2673993 C12.5015476,14.2673993 14.2673993,12.5015476 14.2673993,10.3235653 L14.2673993,6.37973138 C14.2673993,4.20174908 12.5015476,2.43589744 10.3235653,2.43589744 L10.3235653,2.43589744 Z M10.3235653,24.7069597 L6.37973138,24.7069597 C4.20174908,24.7069597 2.43589744,26.4728114 2.43589744,28.6507937 L2.43589744,32.5946276 C2.43589744,34.7726099 4.20174908,36.5384615 6.37973138,36.5384615 L10.3235653,36.5384615 C12.5015476,36.5384615 14.2673993,34.7726099 14.2673993,32.5946276 L14.2673993,28.6507937 C14.2673993,26.4728114 12.5015476,24.7069597 10.3235653,24.7069597 L10.3235653,24.7069597 Z M32.5946276,2.43589744 L28.6507937,2.43589744 C26.4728114,2.43589744 24.7069597,4.20174908 24.7069597,6.37973138 L24.7069597,10.3235653 C24.7069597,12.5015476 26.4728114,14.2673993 28.6507937,14.2673993 L32.5946276,14.2673993 C34.7726099,14.2673993 36.5384615,12.5015476 36.5384615,10.3235653 L36.5384615,6.37973138 C36.5384615,4.20174908 34.7726099,2.43589744 32.5946276,2.43589744 L32.5946276,2.43589744 Z M32.5946276,24.7069597 L28.6507937,24.7069597 C26.4728114,24.7069597 24.7069597,26.4728114 24.7069597,28.6507937 L24.7069597,32.5946276 C24.7069597,34.7726099 26.4728114,36.5384615 28.6507937,36.5384615 L32.5946276,36.5384615 C34.7726099,36.5384615 36.5384615,34.7726099 36.5384615,32.5946276 L36.5384615,28.6507937 C36.5384615,26.4728114 34.7726099,24.7069597 32.5946276,24.7069597 L32.5946276,24.7069597 Z M11.1355311,22.2710623 L5.56776557,22.2710623 C2.49296703,22.2710623 0,24.7640293 0,27.8388278 L0,33.4065934 C0,36.4813919 2.49296703,38.974359 5.56776557,38.974359 L11.1355311,38.974359 C14.2103297,38.974359 16.7032967,36.4813919 16.7032967,33.4065934 L16.7032967,27.8388278 C16.7032967,24.7640293 14.2103297,22.2710623 11.1355311,22.2710623 L11.1355311,22.2710623 Z" id="header-icon-listings-2"></path>
                </g>
            </g>
        </g>
    </g>
</svg>