<?xml version="1.0" encoding="UTF-8" standalone="no"?>
<svg width="65px" height="66px" viewBox="0 0 65 66" version="1.1" xmlns="http://www.w3.org/2000/svg" xmlns:xlink="http://www.w3.org/1999/xlink" xmlns:sketch="http://www.bohemiancoding.com/sketch/ns">
    <!-- Generator: Sketch 3.2.2 (9983) - http://www.bohemiancoding.com/sketch -->
    <title>ic_feed-readlater-delete</title>
    <desc>Created with Sketch.</desc>
    <defs></defs>
    <g id="--styleguide" stroke="none" stroke-width="1" fill="none" fill-rule="evenodd" sketch:type="MSPage">
        <g id="--exported-assets" sketch:type="MSArtboardGroup" transform="translate(-1129.000000, -322.000000)" fill="#FFFFFF">
            <g id="Feed-Item-Swipe-Actions" sketch:type="MSLayerGroup" transform="translate(918.000000, 263.000000)">
                <g id="ic_feed-readlater-delete" transform="translate(210.500000, 59.000000)" sketch:type="MSShapeGroup">
                    <path d="M9.38027262,54.6451898 C6.8204055,51.9144421 4.77216651,48.7679966 3.23555564,45.2058532 C1.55736732,41.3155076 0.71827316,37.1581774 0.71827316,32.7338627 C0.71827316,28.3095481 1.55736732,24.1649307 3.23555564,20.3000129 C4.91374396,16.4350928 7.20218258,13.0532906 10.1008715,10.1546017 C12.9995604,7.2559128 16.3813638,4.96747418 20.2462827,3.28928586 C24.1112005,1.61109754 28.2558179,0.772003379 32.6801325,0.772003379 C37.1044472,0.772003379 41.2617773,1.61109754 45.152123,3.28928586 C48.7142664,4.82589673 51.8607119,6.87413572 54.5914595,9.43400284 L62.0395352,1.98592722 C62.6290028,1.39645959 63.583233,1.39497388 64.1800979,1.99183882 C64.7728305,2.58457135 64.7733925,3.54501863 64.1860095,4.13240156 L3.30433832,65.0140728 C2.71487069,65.6035404 1.76064053,65.6050261 1.16377558,65.0081612 C0.571043061,64.4154287 0.570481054,63.4549814 1.15786398,62.8675984 L9.38027221,54.6451902 Z M53.1770819,10.8483805 C50.6279924,8.46913895 47.6939676,6.56366403 44.3750074,5.1319557 C40.7278083,3.55865415 36.8303113,2.77200338 32.6825163,2.77200338 C28.5347213,2.77200338 24.6491425,3.55865415 21.0257821,5.1319557 C17.4024206,6.70525725 14.23198,8.85066846 11.5144591,11.5681893 C8.79693824,14.2857102 6.65152703,17.4561497 5.07822548,21.0795123 C3.50492393,24.7028727 2.71827316,28.5884515 2.71827316,32.7362465 C2.71827316,36.8840415 3.50492393,40.7815385 5.07822548,44.4287376 C6.50993381,47.7476978 8.41540873,50.6817226 10.7946502,53.2308121 L29.3048999,34.7205625 L19.4545455,34.7205625 C18.6501818,34.7205625 18,34.078 18,33.2845 C18,32.491 18.6501818,31.8455625 19.4545455,31.8455625 L31.0909091,31.8455625 L31.0909091,17.4375 C31.0909091,16.6425625 31.7425455,16 32.5454545,16 C33.3498182,16 34,16.6425625 34,17.4375 L34,30.0254624 L53.1770824,10.84838 Z M12.642891,57.675521 C14.9264316,59.5188766 17.4608954,61.0452765 20.2462827,62.2547209 C24.1112005,63.9329092 28.2558179,64.7720034 32.6801325,64.7720034 C37.1044472,64.7720034 41.2617773,63.9329092 45.152123,62.2547209 C49.0424686,60.5765326 52.4369859,58.288094 55.3356748,55.389405 C58.2343637,52.4907161 60.5228024,49.0961989 62.2009907,45.2058532 C63.879179,41.3155076 64.7182732,37.1581774 64.7182732,32.7338627 C64.7182732,28.3095481 63.879179,24.1649307 62.2009907,20.3000129 C60.9915463,17.5146248 59.4651464,14.9801614 57.6217909,12.6966211 L56.199557,14.1188541 C57.8677037,16.2159087 59.2539572,18.5361284 60.3583208,21.0795123 C61.9316224,24.7028727 62.7182732,28.5884515 62.7182732,32.7362465 C62.7182732,36.8840415 61.9316224,40.7815385 60.3583208,44.4287376 C58.7850193,48.0759366 56.6396081,51.2582966 53.9220872,53.9758174 C51.2045664,56.6933383 48.0222064,58.8387495 44.3750074,60.4120511 C40.7278083,61.9853526 36.8303113,62.7720034 32.6825163,62.7720034 C28.5347213,62.7720034 24.6491425,61.9853526 21.0257821,60.4120511 C18.4823987,59.3076873 16.1621785,57.9214336 14.0651212,56.2532899 L12.6428926,57.6755185 L12.642891,57.675521 Z M47.0909091,31.8125 L50,31.8125 L50,34.6875 L47.0909091,34.6875 L47.0909091,31.8125 Z M43.0138182,45.026 L40.9570909,42.993375 L43.0138182,40.96075 L45.0705455,42.993375 L43.0138182,45.026 Z M31.0909091,47.625 L34,47.625 L34,50.5 L31.0909091,50.5 L31.0909091,47.625 Z M21.3134545,20.1816875 L23.3701818,22.2143125 L21.3134545,24.2469375 L19.2567273,22.2143125 L21.3134545,20.1816875 Z" id="ic_readlater"></path>
                </g>
            </g>
        </g>
    </g>
</svg>