<?xml version="1.0" encoding="UTF-8" standalone="no"?>
<svg width="64px" height="64px" viewBox="0 0 64 64" version="1.1" xmlns="http://www.w3.org/2000/svg" xmlns:xlink="http://www.w3.org/1999/xlink" xmlns:sketch="http://www.bohemiancoding.com/sketch/ns">
    <!-- Generator: Sketch 3.2.2 (9983) - http://www.bohemiancoding.com/sketch -->
    <title>ic_feed-readlater</title>
    <desc>Created with Sketch.</desc>
    <defs></defs>
    <g id="--styleguide" stroke="none" stroke-width="1" fill="none" fill-rule="evenodd" sketch:type="MSPage">
        <g id="--exported-assets" sketch:type="MSArtboardGroup" transform="translate(-919.000000, -323.000000)">
            <g id="Feed-Item-Swipe-Actions" sketch:type="MSLayerGroup" transform="translate(918.000000, 263.000000)">
                <g id="ic_feed-readlater" transform="translate(2.000000, 61.000000)" sketch:type="MSShapeGroup">
                    <path d="M45.375,29.5625 L48.25,29.5625 L48.25,32.4375 L45.375,32.4375 L45.375,29.5625 Z M41.72375,21.88625 L39.73425,19.8924375 L41.72375,17.9000625 L43.71325,19.8924375 L41.72375,21.88625 L41.72375,21.88625 Z M41.3456875,42.776 L39.3130625,40.743375 L41.3456875,38.71075 L43.3783125,40.743375 L41.3456875,42.776 L41.3456875,42.776 Z M32.4375,31.0345 C32.4375,31.828 31.7949375,32.4705625 31,32.4705625 L18.0625,32.4705625 C17.2675625,32.4705625 16.625,31.828 16.625,31.0345 C16.625,30.241 17.2675625,29.5955625 18.0625,29.5955625 L29.5625,29.5955625 L29.5625,15.1875 C29.5625,14.3925625 30.2065,13.75 31,13.75 C31.7949375,13.75 32.4375,14.3925625 32.4375,15.1875 L32.4375,31.0345 L32.4375,31.0345 Z M29.5625,45.375 L32.4375,45.375 L32.4375,48.25 L29.5625,48.25 L29.5625,45.375 Z M19.6681875,42.8148125 L17.6786875,40.821 L19.6681875,38.8271875 L21.6576875,40.821 L19.6681875,42.8148125 L19.6681875,42.8148125 Z M19.899625,17.9316875 L21.93225,19.9643125 L19.899625,21.9969375 L17.867,19.9643125 L19.899625,17.9316875 L19.899625,17.9316875 Z" id="ic_readlater" fill="#FFFFFF"></path>
                    <path d="M30.9630513,0 C26.6769964,0 22.6618983,0.812872467 18.9177592,2.4386174 C15.173619,4.06436234 11.897497,6.28128725 9.08939213,9.08939213 C6.28128725,11.897497 4.06436234,15.1736179 2.4386174,18.9177592 C0.812872467,22.6618983 0,26.6769964 0,30.9630513 C0,35.2491061 0.812872467,39.2765197 2.4386174,43.045292 C4.06436234,46.8140644 6.28128725,50.102503 9.08939213,52.9106079 C11.897497,55.7187128 15.173619,57.9356377 18.9177592,59.5613826 C22.6618983,61.1871275 26.6769964,62 30.9630513,62 C35.2491061,62 39.2765197,61.1871275 43.045292,59.5613826 C46.8140644,57.9356377 50.102503,55.7187128 52.9106079,52.9106079 C55.7187128,50.102503 57.9356377,46.8140644 59.5613826,43.045292 C61.1871275,39.2765197 62,35.2491061 62,30.9630513 C62,26.6769964 61.1871275,22.6618983 59.5613826,18.9177592 C57.9356377,15.1736179 55.7187128,11.897497 52.9106079,9.08939213 C50.102503,6.28128725 46.8140644,4.06436234 43.045292,2.4386174 C39.2765197,0.812872467 35.2491061,0 30.9630513,0 L30.9630513,0 Z" id="white-5" stroke="#FFFFFF" stroke-width="2"></path>
                </g>
            </g>
        </g>
    </g>
</svg>