<?xml version="1.0" encoding="UTF-8" standalone="no"?>
<svg width="64px" height="65px" viewBox="0 0 64 65" version="1.1" xmlns="http://www.w3.org/2000/svg" xmlns:xlink="http://www.w3.org/1999/xlink" xmlns:sketch="http://www.bohemiancoding.com/sketch/ns">
    <!-- Generator: Sketch 3.2.2 (9983) - http://www.bohemiancoding.com/sketch -->
    <title>ic_feed-share</title>
    <desc>Created with Sketch.</desc>
    <defs></defs>
    <g id="--styleguide" stroke="none" stroke-width="1" fill="none" fill-rule="evenodd" sketch:type="MSPage">
        <g id="--exported-assets" sketch:type="MSArtboardGroup" transform="translate(-1023.000000, -321.000000)">
            <g id="Feed-Item-Swipe-Actions" sketch:type="MSLayerGroup" transform="translate(918.000000, 263.000000)">
                <g id="ic_feed-share" transform="translate(106.000000, 59.500000)" sketch:type="MSShapeGroup">
                    <path d="M30.9630513,0 C26.6769964,0 22.6618983,0.812872467 18.9177592,2.4386174 C15.173619,4.06436234 11.897497,6.28128725 9.08939213,9.08939213 C6.28128725,11.897497 4.06436234,15.1736179 2.4386174,18.9177592 C0.812872467,22.6618983 0,26.6769964 0,30.9630513 C0,35.2491061 0.812872467,39.2765197 2.4386174,43.045292 C4.06436234,46.8140644 6.28128725,50.102503 9.08939213,52.9106079 C11.897497,55.7187128 15.173619,57.9356377 18.9177592,59.5613826 C22.6618983,61.1871275 26.6769964,62 30.9630513,62 C35.2491061,62 39.2765197,61.1871275 43.045292,59.5613826 C46.8140644,57.9356377 50.102503,55.7187128 52.9106079,52.9106079 C55.7187128,50.102503 57.9356377,46.8140644 59.5613826,43.045292 C61.1871275,39.2765197 62,35.2491061 62,30.9630513 C62,26.6769964 61.1871275,22.6618983 59.5613826,18.9177592 C57.9356377,15.1736179 55.7187128,11.897497 52.9106079,9.08939213 C50.102503,6.28128725 46.8140644,4.06436234 43.045292,2.4386174 C39.2765197,0.812872467 35.2491061,0 30.9630513,0 L30.9630513,0 Z" id="white-3" stroke="#FFFFFF" stroke-width="2"></path>
                    <path d="M38.3333333,35.5384615 C35.9733333,35.5384615 33.9133333,36.7836538 32.728,38.6507692 L25.588,34.5315385 C26.0493333,33.6161538 26.3333333,32.5957692 26.3333333,31.5 C26.3333333,30.8228846 26.204,30.1821154 26.02,29.5655769 L33.448,25.2807692 C34.6653333,26.6134615 36.396,27.4615385 38.3333333,27.4615385 C42.016,27.4615385 45,24.4488462 45,20.7307692 C45,17.0126923 42.016,14 38.3333333,14 C34.6506667,14 31.6666667,17.0126923 31.6666667,20.7307692 C31.6666667,21.4078846 31.796,22.0486538 31.98,22.6665385 L24.552,26.95 C23.3346667,25.6186538 21.604,24.7692308 19.6666667,24.7692308 C15.984,24.7692308 13,27.7819231 13,31.5 C13,35.2180769 15.984,38.2307692 19.6666667,38.2307692 C21.1866667,38.2307692 22.572,37.6976923 23.6933333,36.8334615 L31.74,41.5423077 C31.7133333,41.7846154 31.6666667,42.0188462 31.6666667,42.2692308 C31.6666667,45.9873077 34.6506667,49 38.3333333,49 C42.016,49 45,45.9873077 45,42.2692308 C45,38.5511538 42.016,35.5384615 38.3333333,35.5384615" id="ic_share" fill="#FFFFFF"></path>
                </g>
            </g>
        </g>
    </g>
</svg>