<?xml version="1.0" encoding="UTF-8" standalone="no"?>
<svg width="58px" height="58px" viewBox="0 0 58 58" version="1.1" xmlns="http://www.w3.org/2000/svg" xmlns:xlink="http://www.w3.org/1999/xlink" xmlns:sketch="http://www.bohemiancoding.com/sketch/ns">
    <!-- Generator: Sketch 3.2.2 (9983) - http://www.bohemiancoding.com/sketch -->
    <title>icon-media-article-gray</title>
    <desc>Created with Sketch.</desc>
    <defs>
        <filter x="-50%" y="-50%" width="200%" height="200%" filterUnits="objectBoundingBox" id="filter-1">
            <feOffset dx="0" dy="2" in="SourceAlpha" result="shadowOffsetOuter1"></feOffset>
            <feGaussianBlur stdDeviation="2" in="shadowOffsetOuter1" result="shadowBlurOuter1"></feGaussianBlur>
            <feColorMatrix values="0 0 0 0 0   0 0 0 0 0   0 0 0 0 0  0 0 0 0.35 0" in="shadowBlurOuter1" type="matrix" result="shadowMatrixOuter1"></feColorMatrix>
            <feMerge>
                <feMergeNode in="shadowMatrixOuter1"></feMergeNode>
                <feMergeNode in="SourceGraphic"></feMergeNode>
            </feMerge>
        </filter>
    </defs>
    <g id="--styleguide" stroke="none" stroke-width="1" fill="none" fill-rule="evenodd" sketch:type="MSPage">
        <g id="--exported-assets" sketch:type="MSArtboardGroup" transform="translate(-61.000000, -277.000000)">
            <g id="Media-Type-Identifiers" sketch:type="MSLayerGroup" transform="translate(65.000000, 226.000000)">
                <g id="icon-media-article-gray" transform="translate(0.000000, 53.000000)" sketch:type="MSShapeGroup">
                    <circle id="Oval" opacity="0.949999928" fill="#222222" filter="url(#filter-1)" cx="25.1904762" cy="25.1904762" r="25"></circle>
                    <path d="M20.8545092,17.0477484 C23.9102912,17.067931 26.3809524,19.4464411 26.3809524,22.3809524 C26.3809524,22.6430476 26.3396076,22.8929524 26.3014433,23.1428571 L15.3307752,23.1428571 C15.2926108,22.8929524 15.2496759,22.6430476 15.2496759,22.3809524 C15.2496759,19.4462072 17.7223078,17.0675519 20.7768694,17.0477437 C18.5988362,17.0276569 16.8404943,15.3302836 16.8404943,13.2384 C16.8404943,11.134019 18.6199084,9.42887619 20.8159502,9.42887619 C23.011992,9.42887619 24.7914061,11.134019 24.7914061,13.2384 C24.7914061,15.3304506 23.0327834,17.027928 20.8545092,17.0477484 L20.8545092,17.0477484 Z M15.250312,29.047619 L35.9226826,29.047619 L35.9226826,27.3809524 L15.250312,27.3809524 L15.250312,29.047619 Z M15.250312,38.1904762 L31.1521355,38.1904762 L31.1521355,36.5238095 L15.250312,36.5238095 L15.250312,38.1904762 Z M15.250312,33.6190476 L35.9226826,33.6190476 L35.9226826,31.952381 L15.250312,31.952381 L15.250312,33.6190476 Z" id="Fill-1900" opacity="0.9" fill="#FFFFFF"></path>
                </g>
            </g>
        </g>
    </g>
</svg>