<?xml version="1.0" encoding="UTF-8" standalone="no"?>
<svg width="58px" height="59px" viewBox="0 0 58 59" version="1.1" xmlns="http://www.w3.org/2000/svg" xmlns:xlink="http://www.w3.org/1999/xlink" xmlns:sketch="http://www.bohemiancoding.com/sketch/ns">
    <!-- Generator: Sketch 3.2.2 (9983) - http://www.bohemiancoding.com/sketch -->
    <title>icon-media-gallery-gray</title>
    <desc>Created with Sketch.</desc>
    <defs>
        <filter x="-50%" y="-50%" width="200%" height="200%" filterUnits="objectBoundingBox" id="filter-1">
            <feOffset dx="0" dy="2" in="SourceAlpha" result="shadowOffsetOuter1"></feOffset>
            <feGaussianBlur stdDeviation="2" in="shadowOffsetOuter1" result="shadowBlurOuter1"></feGaussianBlur>
            <feColorMatrix values="0 0 0 0 0   0 0 0 0 0   0 0 0 0 0  0 0 0 0.35 0" in="shadowBlurOuter1" type="matrix" result="shadowMatrixOuter1"></feColorMatrix>
            <feMerge>
                <feMergeNode in="shadowMatrixOuter1"></feMergeNode>
                <feMergeNode in="SourceGraphic"></feMergeNode>
            </feMerge>
        </filter>
    </defs>
    <g id="--styleguide" stroke="none" stroke-width="1" fill="none" fill-rule="evenodd" sketch:type="MSPage">
        <g id="--exported-assets" sketch:type="MSArtboardGroup" transform="translate(-136.000000, -278.000000)">
            <g id="Media-Type-Identifiers" sketch:type="MSLayerGroup" transform="translate(65.000000, 226.000000)">
                <g id="icon-media-gallery-gray" transform="translate(75.000000, 54.500000)" sketch:type="MSShapeGroup">
                    <circle id="Oval-2" opacity="0.949999928" fill="#222222" filter="url(#filter-1)" cx="25" cy="25" r="25"></circle>
                    <path d="M16.7747977,33.8217708 L14.6308942,33.8217708 L14.6308942,17.9306249 L36.0699298,17.9306249 L36.0699298,20.0494444 L16.7747977,20.0494444 L16.7747977,33.8217708 L16.7747977,33.8217708 Z M13.5589424,30.6435416 L11.4150388,30.6435416 L11.4150388,14.7523958 L32.8540744,14.7523958 L32.8540744,16.8712152 L13.5589424,16.8712152 L13.5589424,30.6435416 L13.5589424,30.6435416 Z M17.8467495,21.1088541 L17.8467495,37 L39.2857851,37 L39.2857851,21.1088541 L17.8467495,21.1088541 Z M19.2510799,35.7463535 L19.2510799,34.1892982 C20.7949641,32.1855852 22.3222559,30.904958 23.2016537,30.904958 C24.1482111,30.904958 24.6175393,31.3555201 25.2109155,31.9255554 C25.8556491,32.5447855 26.5865052,33.2475687 27.9423422,33.2475687 C29.2784262,33.2475687 30.1783669,32.0801677 31.0490733,30.9494676 C31.9537547,29.7758196 32.8892506,28.5623472 34.2632601,28.5623472 C35.4547532,28.5623472 36.8145407,29.6836769 38.2138339,31.7928074 L38.2138339,35.7463535 L19.2510799,35.7463535 Z M23.5027056,23.457677 C24.6383962,23.457677 25.5619814,24.3694385 25.5619814,25.4928588 C25.5619814,26.6162792 24.6383962,27.5280407 23.5027056,27.5280407 C22.367015,27.5280407 21.4434298,26.6162792 21.4434298,25.4928588 C21.4434298,24.3694385 22.367015,23.457677 23.5027056,23.457677 Z" id="Path-4" opacity="0.9" fill="#FFFFFF"></path>
                </g>
            </g>
        </g>
    </g>
</svg>