<?xml version="1.0" encoding="UTF-8" standalone="no"?>
<svg width="58px" height="59px" viewBox="0 0 58 59" version="1.1" xmlns="http://www.w3.org/2000/svg" xmlns:xlink="http://www.w3.org/1999/xlink" xmlns:sketch="http://www.bohemiancoding.com/sketch/ns">
    <!-- Generator: Sketch 3.2.2 (9983) - http://www.bohemiancoding.com/sketch -->
    <title>icon-media-audio-gray</title>
    <desc>Created with Sketch.</desc>
    <defs>
        <filter x="-50%" y="-50%" width="200%" height="200%" filterUnits="objectBoundingBox" id="filter-1">
            <feOffset dx="0" dy="2" in="SourceAlpha" result="shadowOffsetOuter1"></feOffset>
            <feGaussianBlur stdDeviation="2" in="shadowOffsetOuter1" result="shadowBlurOuter1"></feGaussianBlur>
            <feColorMatrix values="0 0 0 0 0   0 0 0 0 0   0 0 0 0 0  0 0 0 0.35 0" in="shadowBlurOuter1" type="matrix" result="shadowMatrixOuter1"></feColorMatrix>
            <feMerge>
                <feMergeNode in="shadowMatrixOuter1"></feMergeNode>
                <feMergeNode in="SourceGraphic"></feMergeNode>
            </feMerge>
        </filter>
    </defs>
    <g id="--styleguide" stroke="none" stroke-width="1" fill="none" fill-rule="evenodd" sketch:type="MSPage">
        <g id="--exported-assets" sketch:type="MSArtboardGroup" transform="translate(-208.000000, -278.000000)">
            <g id="Media-Type-Identifiers" sketch:type="MSLayerGroup" transform="translate(65.000000, 226.000000)">
                <g id="icon-media-audio-gray" transform="translate(147.000000, 54.500000)" sketch:type="MSShapeGroup">
                    <circle id="Oval-3" opacity="0.949999928" fill="#222222" filter="url(#filter-1)" cx="25" cy="25" r="25"></circle>
                    <path d="M36.3890625,23.3445312 C36.4109375,23.0804687 36.4375,22.8171875 36.4375,22.546875 C36.4375,16.721875 31.540625,12 25.5,12 C19.459375,12 14.5625,16.721875 14.5625,22.546875 C14.5625,22.8171875 14.5890625,23.0804687 14.6117187,23.3445312 C13.6546875,23.8789062 13,24.8890625 13,26.0625 L13,30.75 C13,32.4757812 14.3992187,33.875 16.125,33.875 L19.25,33.875 C20.9101562,33.8007812 22.375,32.428125 22.375,30.75 L22.375,26.0625 C22.375,24.3367187 20.9757813,22.9375 19.25,22.9375 L16.125,22.9375 C16.125,17.4765625 20.3226562,13.5625 25.5,13.5625 C30.678125,13.5625 34.9085938,17.4429687 34.875,22.9375 C34.8742188,23.0703125 31.75,22.9375 31.75,22.9375 C30.0242187,22.9375 28.625,24.3367187 28.625,26.0625 L28.625,30.75 C28.625,32.428125 30.0898438,33.8007812 31.75,33.875 L33.3125,33.875 L33.3125,36.21875 C33.3125,36.6507812 33.6617188,37 34.09375,37 C34.5257812,37 34.875,36.6507812 34.875,36.21875 L34.875,33.875 C36.6007813,33.875 38,32.4757812 38,30.75 L38,26.0625 C38,24.8890625 37.3453125,23.8789062 36.3890625,23.3445312" id="Fill-136" opacity="0.9" fill="#FFFFFF"></path>
                </g>
            </g>
        </g>
    </g>
</svg>