<?xml version="1.0" encoding="UTF-8" standalone="no"?>
<svg width="45px" height="41px" viewBox="0 0 45 41" version="1.1" xmlns="http://www.w3.org/2000/svg" xmlns:xlink="http://www.w3.org/1999/xlink" xmlns:sketch="http://www.bohemiancoding.com/sketch/ns">
    <!-- Generator: Sketch 3.2.2 (9983) - http://www.bohemiancoding.com/sketch -->
    <title>menu-quizzes</title>
    <desc>Created with Sketch.</desc>
    <defs></defs>
    <g id="--styleguide" stroke="none" stroke-width="1" fill="none" fill-rule="evenodd" sketch:type="MSPage">
        <g id="--exported-assets" sketch:type="MSArtboardGroup" transform="translate(-424.000000, -472.000000)" fill="#FFFFFF">
            <g id="Question-Mark-Navigation" sketch:type="MSLayerGroup" transform="translate(59.000000, 393.000000)">
                <g id="menu-quizzes" transform="translate(365.000000, 79.000000)" sketch:type="MSShapeGroup">
                    <path d="M22.5917582,32.2904106 L19.2118987,32.2904106 C16.4571492,32.2904106 14.211722,30.0500877 14.211722,27.2865094 L14.211722,11.9668005 C14.211722,9.21054694 16.4503774,6.96289927 19.2118987,6.96289927 L26.660523,6.96289927 C29.4152726,6.96289927 31.6606997,9.20322215 31.6606997,11.9668005 L31.6606997,12.6066321 C29.1382601,12.7438717 26.8788837,14.4752779 26.189626,17.0476229 L22.7413855,29.9166314 C22.5273628,30.7153749 22.485022,31.5196864 22.5917582,32.2904106 L22.5917582,32.2904106 Z M12.4668243,26.1560584 L10.4021384,26.7092893 C7.74125461,27.4222709 4.99250034,25.8394445 4.27723364,23.1700328 L0.312201208,8.37233035 C-0.401169701,5.70999387 1.1794713,2.95952629 3.84689607,2.24479198 L11.0417147,0.316946149 C13.7025984,-0.396035506 16.4513527,1.18679093 17.1666194,3.85620261 L17.5497113,5.28592121 C14.6713027,5.72785249 12.4668243,8.21636603 12.4668243,11.2150605 L12.4668243,26.1560584 L12.4668243,26.1560584 Z M33.9582582,14.2907455 C31.2908335,13.5760112 28.5467244,15.1676655 27.8333535,17.830002 L23.8683211,32.6277044 C23.1530544,35.2971161 24.7421322,38.0422611 27.4030159,38.7552428 L34.5978345,40.6830886 C37.2652593,41.3978229 40.0093683,39.8061686 40.7227393,37.1438322 L44.6877717,22.3461297 C45.4030384,19.676718 43.8139606,16.931573 41.1530768,16.2185913 L33.9582582,14.2907455 Z" id="Rectangle-67"></path>
                </g>
            </g>
        </g>
    </g>
</svg>