<?xml version="1.0" encoding="UTF-8" standalone="no"?>
<svg width="41px" height="31px" viewBox="0 0 41 31" version="1.1" xmlns="http://www.w3.org/2000/svg" xmlns:xlink="http://www.w3.org/1999/xlink" xmlns:sketch="http://www.bohemiancoding.com/sketch/ns">
    <!-- Generator: Sketch 3.2.2 (9983) - http://www.bohemiancoding.com/sketch -->
    <title>menu-mylist</title>
    <desc>Created with Sketch.</desc>
    <defs></defs>
    <g id="--styleguide" stroke="none" stroke-width="1" fill="none" fill-rule="evenodd" sketch:type="MSPage">
        <g id="--exported-assets" sketch:type="MSArtboardGroup" transform="translate(-516.000000, -477.000000)" fill="#FFFFFF">
            <g id="Question-Mark-Navigation" sketch:type="MSLayerGroup" transform="translate(59.000000, 393.000000)">
                <g id="menu-mylist" transform="translate(457.500000, 84.000000)" sketch:type="MSShapeGroup">
                    <path d="M37.2413793,23.9545455 L15.1724138,23.9545455 C13.6496552,23.9545455 12.4137931,25.2170909 12.4137931,26.7727273 C12.4137931,28.3283636 13.6496552,29.5909091 15.1724138,29.5909091 L37.2413793,29.5909091 C38.7641379,29.5909091 40,28.3283636 40,26.7727273 C40,25.2170909 38.7641379,23.9545455 37.2413793,23.9545455 L37.2413793,23.9545455 Z M37.2413793,12.6818182 L15.1724138,12.6818182 C13.6496552,12.6818182 12.4137931,13.9443636 12.4137931,15.5 C12.4137931,17.0556364 13.6496552,18.3181818 15.1724138,18.3181818 L37.2413793,18.3181818 C38.7641379,18.3181818 40,17.0556364 40,15.5 C40,13.9443636 38.7641379,12.6818182 37.2413793,12.6818182 L37.2413793,12.6818182 Z M15.1724138,7.04545455 L37.2413793,7.04545455 C38.7641379,7.04545455 40,5.78290909 40,4.22727273 C40,2.67163636 38.7641379,1.40909091 37.2413793,1.40909091 L15.1724138,1.40909091 C13.6496552,1.40909091 12.4137931,2.67163636 12.4137931,4.22727273 C12.4137931,5.78290909 13.6496552,7.04545455 15.1724138,7.04545455 L15.1724138,7.04545455 Z M4.13793103,22.5454545 C1.85241379,22.5454545 0,24.4378636 0,26.7727273 C0,29.1075909 1.85241379,31 4.13793103,31 C6.42344828,31 8.27586207,29.1075909 8.27586207,26.7727273 C8.27586207,24.4378636 6.42344828,22.5454545 4.13793103,22.5454545 L4.13793103,22.5454545 Z M4.13793103,11.2727273 C1.85241379,11.2727273 0,13.1651364 0,15.5 C0,17.8348636 1.85241379,19.7272727 4.13793103,19.7272727 C6.42344828,19.7272727 8.27586207,17.8348636 8.27586207,15.5 C8.27586207,13.1651364 6.42344828,11.2727273 4.13793103,11.2727273 L4.13793103,11.2727273 Z M4.13793103,0 C1.85241379,0 0,1.89240909 0,4.22727273 C0,6.56213636 1.85241379,8.45454545 4.13793103,8.45454545 C6.42344828,8.45454545 8.27586207,6.56213636 8.27586207,4.22727273 C8.27586207,1.89240909 6.42344828,0 4.13793103,0 L4.13793103,0 Z" id="Fill-193"></path>
                </g>
            </g>
        </g>
    </g>
</svg>