<?xml version="1.0" encoding="UTF-8" standalone="no"?>
<svg width="24px" height="47px" viewBox="0 0 24 47" version="1.1" xmlns="http://www.w3.org/2000/svg" xmlns:xlink="http://www.w3.org/1999/xlink" xmlns:sketch="http://www.bohemiancoding.com/sketch/ns">
    <!-- Generator: Sketch 3.2.2 (9983) - http://www.bohemiancoding.com/sketch -->
    <title>menu-howstuffworks</title>
    <desc>Created with Sketch.</desc>
    <defs></defs>
    <g id="--styleguide" stroke="none" stroke-width="1" fill="none" fill-rule="evenodd" sketch:type="MSPage">
        <g id="--exported-assets" sketch:type="MSArtboardGroup" transform="translate(-286.000000, -468.000000)" fill="#FFFFFF">
            <g id="Question-Mark-Navigation" sketch:type="MSLayerGroup" transform="translate(59.000000, 393.000000)">
                <g id="menu-howstuffworks" transform="translate(227.000000, 75.000000)" sketch:type="MSShapeGroup">
                    <path d="M21.4350107,15.7489941 C20.8703647,16.4290764 20.2456573,17.0085164 19.5594788,17.4872709 C18.873343,17.9667179 18.2250553,18.4454723 17.6153419,18.9242267 C17.004945,19.4036737 16.4638794,19.9519904 15.9914615,20.5697827 C15.5182747,21.1883109 15.220915,21.9603782 15.0994251,22.8874562 L15.0994251,24.4522387 C14.2154625,24.2779651 13.2792557,24.1862399 12.2978961,24.1862399 C11.101836,24.1862399 9.97280045,24.3222045 8.92394647,24.5785069 L8.92394647,22.5629768 C9.01544833,21.2346713 9.26701438,20.1221949 9.67873004,19.2255044 C10.0904457,18.3295929 10.5707237,17.5647546 11.1196494,16.9310327 C11.6686179,16.2980033 12.2475744,15.7489941 12.8579712,15.2854767 C13.4676419,14.821916 14.0315617,14.3583986 14.5504994,13.8948379 C15.0687109,13.4313205 15.488244,12.9214427 15.8084578,12.3651613 C16.1286716,11.8089231 16.2730583,11.113647 16.2430275,10.2792464 C16.2430275,8.8582202 15.8999596,7.80729797 15.2137811,7.12721563 C14.5276453,6.44782588 13.5741378,6.10741677 12.3547537,6.10741677 C11.5313651,6.10741677 10.8223325,6.26965651 10.2276558,6.594136 C9.63297911,6.91861549 9.1447983,7.35174539 8.76383957,7.89205396 C8.38215463,8.4330984 8.10055786,9.06682034 7.91755413,9.79257049 C7.73459312,10.5190132 7.64309126,11.2990453 7.64309126,12.1334026 L0.918686859,12.1334026 C0.948717583,10.464688 1.23104056,8.93501137 1.7649723,7.54441591 C2.29817783,6.15377716 3.04578478,4.94858 4.00642619,3.92882443 C4.9670676,2.90902556 6.12566401,2.11375646 7.48298436,1.54158866 C8.83962122,0.970156729 10.3570485,0.684072825 12.0345399,0.684072825 C14.1995287,0.684072825 16.0064555,0.985350472 17.4552777,1.58794905 C18.903331,2.19054763 20.0698302,2.94014893 20.95469,3.83610363 C21.8388663,4.73275093 22.471391,5.69822458 22.853076,6.73321719 C23.2340347,7.76890239 23.4248985,8.73437604 23.4248985,9.63033075 C23.4248985,11.113647 23.2340347,12.3347738 22.853076,13.2922393 C22.471391,14.2504841 21.9989732,15.0696476 21.4350107,15.7489941 Z M12.2978961,26.2684154 C19.0382343,26.2684154 23.6639909,30.5659939 23.6639909,36.5984294 C23.6639909,42.5913872 19.0823192,46.889009 12.2978961,46.889009 C5.51347298,46.889009 0.931758554,42.5913872 0.931758554,36.5984294 C0.931758554,30.5659939 5.55751519,26.2684154 12.2978961,26.2684154 Z M12.2978961,42 C15.4698325,42 17.4082452,39.2006285 17.4082452,36.5984294 C17.4082452,33.9173181 15.4698325,31.1574244 12.2978961,31.1574244 C9.12595968,31.1574244 7.18754697,33.9173181 7.18754697,36.5984294 C7.18754697,39.2006285 9.12595968,42 12.2978961,42 Z" id="Polygon-1"></path>
                </g>
            </g>
        </g>
    </g>
</svg>