<?xml version="1.0" encoding="UTF-8" standalone="no"?>
<svg width="40px" height="41px" viewBox="0 0 40 41" version="1.1" xmlns="http://www.w3.org/2000/svg" xmlns:xlink="http://www.w3.org/1999/xlink" xmlns:sketch="http://www.bohemiancoding.com/sketch/ns">
    <!-- Generator: Sketch 3.2.2 (9983) - http://www.bohemiancoding.com/sketch -->
    <title>menu-settings</title>
    <desc>Created with Sketch.</desc>
    <defs></defs>
    <g id="--styleguide" stroke="none" stroke-width="1" fill="none" fill-rule="evenodd" sketch:type="MSPage">
        <g id="--exported-assets" sketch:type="MSArtboardGroup" transform="translate(-200.000000, -472.000000)" fill="#FFFFFF">
            <g id="Question-Mark-Navigation" sketch:type="MSLayerGroup" transform="translate(59.000000, 393.000000)">
                <g id="menu-settings" transform="translate(141.000000, 79.500000)" sketch:type="MSShapeGroup">
                    <path d="M20,27.52032 C15.8464,27.52032 12.48,24.15392 12.48,20.00032 C12.48,15.84672 15.8464,12.48032 20,12.48032 C24.1536,12.48032 27.52,15.84672 27.52,20.00032 C27.52,24.15392 24.1536,27.52032 20,27.52032 M37.6,16.00032 L36,16.00032 C34.6256,16.00032 33.4624,14.80032 33.4624,13.37952 C33.4624,12.67392 33.7648,11.99552 34.32,11.49152 L35.3088,10.50432 C36.2656,9.54592 36.2656,7.98912 35.3088,7.03232 L32.968,4.69152 C32.504,4.22752 31.8688,3.99712 31.2336,3.99712 C30.5968,3.99712 29.96,4.22752 29.496,4.69152 L28.4816,5.70752 C28.0048,6.23392 27.3264,6.53792 26.6224,6.53792 C25.16,6.53792 23.2,5.28352 23.2,4.00032 L23.2,2.40032 C23.2,1.05472 22.1456,0.000319999999 20.8,0.000319999999 L18.4,0.000319999999 C17.0544,0.000319999999 16,1.05472 16,2.40032 L16,4.00032 C16,5.37472 14.8,6.53792 13.3776,6.53792 C12.6736,6.53792 11.9968,6.23552 11.4928,5.68032 L10.504,4.69152 C10.04,4.22752 9.4048,3.99712 8.768,3.99712 C8.1312,3.99712 7.496,4.22752 7.0336,4.69152 L4.6912,7.03232 C3.7344,7.98912 3.7344,9.54592 4.6912,10.50432 L5.7072,11.51872 C6.2416,12.00352 6.5376,12.66432 6.5376,13.37952 C6.5376,14.80032 5.3744,16.00032 4,16.00032 L2.4,16.00032 C1.0544,16.00032 0,17.05472 0,18.40032 L0,21.60032 C0,22.94592 1.0544,24.00032 2.4,24.00032 L4,24.00032 C5.3744,24.00032 6.5376,25.20032 6.5376,26.61952 C6.5376,27.32672 6.2352,28.00512 5.68,28.50752 L4.6912,29.49472 C3.7344,30.45472 3.7344,32.01152 4.6912,32.96672 L7.0336,35.30752 C7.496,35.77152 8.1312,36.00512 8.768,36.00512 C9.4048,36.00512 10.04,35.77152 10.504,35.30752 L11.5184,34.29152 C11.9952,33.76512 12.6736,33.46272 13.3776,33.46272 C14.8,33.46272 16,34.62432 16,36.00032 L16,37.60032 C16,38.94592 17.0544,40.00032 18.4,40.00032 L21.6,40.00032 C22.9456,40.00032 24,38.94592 24,37.60032 L24,36.00032 C24,34.62432 25.2,33.46272 26.6224,33.46272 C27.3264,33.46272 28.0032,33.76352 28.5072,34.32032 L29.496,35.30752 C29.96,35.77152 30.5968,36.00512 31.2336,36.00512 C31.8688,36.00512 32.504,35.77152 32.968,35.30752 L35.3088,32.96672 C36.2656,32.01152 36.2656,30.45472 35.3088,29.49472 L34.2928,28.48192 C33.7584,27.99712 33.4624,27.33632 33.4624,26.61952 C33.4624,25.20032 34.6256,24.00032 36,24.00032 L37.6,24.00032 C38.9456,24.00032 40,22.94592 40,21.60032 L40,18.40032 C40,17.05472 38.9456,16.00032 37.6,16.00032" id="Fill-3571"></path>
                </g>
            </g>
        </g>
    </g>
</svg>