<?xml version="1.0" encoding="UTF-8" standalone="no"?>
<svg width="50px" height="50px" viewBox="0 0 50 50" version="1.1" xmlns="http://www.w3.org/2000/svg" xmlns:xlink="http://www.w3.org/1999/xlink" xmlns:sketch="http://www.bohemiancoding.com/sketch/ns">
    <!-- Generator: Sketch 3.2.2 (9983) - http://www.bohemiancoding.com/sketch -->
    <title>podcast-button-forward</title>
    <desc>Created with Sketch.</desc>
    <defs></defs>
    <g id="--styleguide" stroke="none" stroke-width="1" fill="none" fill-rule="evenodd" sketch:type="MSPage">
        <g id="--exported-assets" sketch:type="MSArtboardGroup" transform="translate(-1034.000000, -138.000000)" fill="#FFFFFF">
            <g id="Podcast" sketch:type="MSLayerGroup" transform="translate(918.000000, 64.000000)">
                <g id="podcast-button-forward" transform="translate(116.000000, 74.000000)" sketch:type="MSShapeGroup">
                    <path d="M45.4375,3.125 C46.3,3.125 47,2.421875 47,1.5625 C47,0.703125 46.3,0 45.4375,0 L32.8125,0 C32.6234375,0 31.25,0 31.25,1.5625 L31.25,14.1875 C31.25,15.046875 31.95,15.75 32.8125,15.75 C33.675,15.75 34.375,15.046875 34.375,14.1875 L34.375,5.25 C41.7625,8.765625 46.875,16.28125 46.875,25 C46.875,37.078125 37.08125,46.875 25,46.875 C12.91875,46.875 3.125,37.078125 3.125,25 C3.125,13.984375 11.278125,4.890625 21.875,3.375 L21.875,0.21875 C9.5453125,1.765625 0,12.25 0,25 C0,38.8125 11.19375,50 25,50 C38.80625,50 50,38.8125 50,25 C50,15.578125 44.7875,7.390625 37.09375,3.125 L45.4375,3.125 Z" id="Fill-21" transform="translate(25.000000, 25.000000) scale(-1, 1) translate(-25.000000, -25.000000) "></path>
                    <path d="M12.4732,29.5804 C13.2558,30.4358 14.4388,31.2184 16.2952,31.2184 C18.4246,31.2184 20.1172,29.9626 20.1172,27.906 C20.1172,26.3044 19.007,25.2852 17.6056,24.9576 L17.6056,24.8848 C18.8614,24.4116 19.7168,23.5198 19.7168,22.1184 C19.7168,20.2438 18.2608,19.17 16.2406,19.17 C14.8756,19.17 13.8018,19.7888 12.91,20.626 L13.7108,21.5724 C14.4024,20.8808 15.2214,20.3894 16.186,20.3894 C17.4236,20.3894 18.188,21.0992 18.188,22.2276 C18.188,23.447 17.369,24.3934 14.8938,24.3934 L14.8938,25.54 C17.6602,25.54 18.6066,26.4682 18.6066,27.8514 C18.6066,29.1436 17.6056,29.9808 16.2042,29.9808 C14.8392,29.9808 13.9292,29.3256 13.2376,28.5976 L12.4732,29.5804 Z M25.5772,31.2184 C27.8886,31.2184 29.29,29.0526 29.29,25.1578 C29.29,21.263 27.8886,19.17 25.5772,19.17 C23.2476,19.17 21.8462,21.263 21.8462,25.1578 C21.8462,29.0526 23.2476,31.2184 25.5772,31.2184 L25.5772,31.2184 Z M25.5772,30.0172 C24.2122,30.0172 23.3022,28.5612 23.3022,25.1578 C23.3022,21.7544 24.2122,20.3712 25.5772,20.3712 C26.924,20.3712 27.834,21.7544 27.834,25.1578 C27.834,28.5612 26.924,30.0172 25.5772,30.0172 L25.5772,30.0172 Z M30.6004,29.999 C31.4376,30.6906 32.6388,31.2184 33.8946,31.2184 C35.9876,31.2184 37.1342,30.0172 37.1342,28.5794 C37.1342,26.905 35.7146,26.3772 34.4406,25.904 C33.4396,25.5218 32.475,25.1942 32.475,24.3752 C32.475,23.7018 32.9846,23.1012 34.0948,23.1012 C34.8774,23.1012 35.5144,23.4288 36.115,23.8838 L36.8248,22.9374 C36.1514,22.3914 35.1868,21.9364 34.0766,21.9364 C32.1656,21.9364 31.0372,23.0284 31.0372,24.448 C31.0372,25.9404 32.4204,26.541 33.6762,26.996 C34.6408,27.36 35.6964,27.7604 35.6964,28.6704 C35.6964,29.4348 35.114,30.0536 33.9492,30.0536 C32.8936,30.0536 32.111,29.6168 31.3466,28.998 L30.6004,29.999 Z" id="30s"></path>
                </g>
            </g>
        </g>
    </g>
</svg>