<?xml version="1.0" encoding="UTF-8" standalone="no"?>
<svg width="77px" height="80px" viewBox="0 0 77 80" version="1.1" xmlns="http://www.w3.org/2000/svg" xmlns:xlink="http://www.w3.org/1999/xlink" xmlns:sketch="http://www.bohemiancoding.com/sketch/ns">
    <!-- Generator: Sketch 3.2.2 (9983) - http://www.bohemiancoding.com/sketch -->
    <title>social-pinterest</title>
    <desc>Created with Sketch.</desc>
    <defs></defs>
    <g id="--styleguide" stroke="none" stroke-width="1" fill="none" fill-rule="evenodd" sketch:type="MSPage">
        <g id="--exported-assets" sketch:type="MSArtboardGroup" transform="translate(-1238.000000, -534.000000)">
            <g id="Social-Row" sketch:type="MSLayerGroup" transform="translate(918.000000, 483.000000)">
                <g id="social-pinterest" transform="translate(320.000000, 51.000000)" sketch:type="MSShapeGroup">
                    <path d="M38.454112,0 C33.1311085,0 28.1446157,1.0488677 23.4946365,3.1466031 C18.8446559,5.2443385 14.7759237,8.10488677 11.2884386,11.7282479 C7.80095352,15.3516091 5.0476758,19.5788618 3.02860548,24.4100119 C1.00953516,29.2411591 0,34.4219309 0,39.9523242 C0,45.4827175 1.00953516,50.6793802 3.02860548,55.5423123 C5.0476758,60.4052443 7.80095352,64.6483909 11.2884386,68.2717521 C14.7759237,71.8951132 18.8446559,74.7556615 23.4946365,76.8533969 C28.1446157,78.9511323 33.1311085,80 38.454112,80 C43.7771156,80 48.7789035,78.9511323 53.4594756,76.8533969 C58.1400477,74.7556615 62.2240763,71.8951132 65.7115614,68.2717521 C69.1990465,64.6483909 71.9523242,60.4052443 73.9713945,55.5423123 C75.9904648,50.6793802 77,45.4827175 77,39.9523242 C77,34.4219309 75.9904648,29.2411591 73.9713945,24.4100119 C71.9523242,19.5788618 69.1990465,15.3516091 65.7115614,11.7282479 C62.2240763,8.10488677 58.1400477,5.2443385 53.4594756,3.1466031 C48.7789035,1.0488677 43.7771156,0 38.454112,0 L38.454112,0 Z" id="white-2" fill="#B37373"></path>
                    <path d="M54.2150743,49.0593298 C53.458033,49.6758263 52.4644162,50.2306727 51.234224,50.7238691 C50.0040318,51.2170654 48.7265246,51.5561387 47.4017022,51.7410875 C46.0768798,51.9260363 44.7520575,51.9414492 43.4272351,51.7873247 C42.1024127,51.6332002 40.9668507,51.1862411 40.020549,50.4464459 C39.7051142,50.2614971 39.4685387,49.9532495 39.3108228,49.5217018 C39.1531068,49.0901542 38.9165313,49.0285055 38.6010965,49.336753 C38.0333155,51.5561387 37.3709043,53.8679987 36.6138629,56.2723332 C35.8568216,58.6766676 34.9420643,60.7727531 33.869588,62.5605925 L30.7467925,62.5605925 L30.8414226,62.4681181 C30.5890765,61.543374 30.5102171,60.3412068 30.6048472,58.8616164 C30.6994774,57.3820373 30.8098783,56.2106944 30.9360528,55.3475891 C31.1253132,54.2378963 31.4249744,53.051142 31.8350394,51.7873247 C32.2451044,50.5235074 32.6551666,49.2288658 33.0652316,47.9033998 C33.4752966,46.5779339 33.8380437,45.2832922 34.1534786,44.0194749 C34.4689134,42.7556591 34.6266294,41.5689033 34.6266294,40.4592105 C34.6266294,39.4728178 34.4689134,38.4710108 34.1534786,37.4537924 C33.8380437,36.436574 33.7434135,35.4039441 33.869588,34.3559 C34.0588484,33.3695073 34.5162285,32.4447633 35.2417255,31.5816679 C35.9672225,30.7185726 36.7715789,30.0712518 37.6547948,29.6397055 C38.5380107,29.2093614 39.4369973,29.1014756 40.3517546,29.3160451 C41.266512,29.5318196 41.9762382,30.1945519 42.4809334,31.3042447 C43.0487144,32.5988863 43.1275739,33.9551766 42.7175088,35.3731184 C42.3077557,36.7910602 41.8503756,38.1781762 41.3453714,39.5344665 C40.8406762,40.8907568 40.4936999,42.1545755 40.3044395,43.3259169 C40.1151792,44.4972584 40.5252442,45.5453026 41.5346317,46.4700466 C41.9131524,46.8399442 42.5597928,47.1327803 43.4745502,47.3485534 C44.3893075,47.5643265 45.2882941,47.5797394 46.17151,47.3947906 C47.559242,47.1481917 48.7578899,46.5008709 49.7674564,45.4528282 C50.7768468,44.404784 51.5812032,43.1717939 52.1805257,41.7538521 C52.7798482,40.3359103 53.1583689,38.7792598 53.3160877,37.0838948 C53.4738066,35.3885299 53.4107179,33.7548164 53.1268274,32.1827515 C52.8429369,30.6106867 52.3540124,29.1927449 51.6600598,27.9289291 C50.9661071,26.6651132 50.0198055,25.694132 48.8211547,25.0159854 C46.2976845,23.5980436 43.7742114,23.0123743 41.2507412,23.2589718 C38.727271,23.5055692 36.4876884,24.2761902 34.5319992,25.5708318 C32.57631,26.8654734 31.0149123,28.5454241 29.8478059,30.6106867 C28.6809074,32.6759493 28.2235273,34.8490977 28.4756684,37.130132 C28.5383413,37.9932274 28.7906874,38.7792598 29.2327098,39.4882293 C29.6743163,40.1971987 30.0528369,40.8753453 30.3682718,41.5226661 C30.6837067,42.1699869 30.8256519,42.8173077 30.7941076,43.4646285 C30.7625632,44.1119493 30.3367275,44.8055074 29.5166003,45.5453026 C27.1193017,44.6822072 25.4475016,43.4492171 24.5012013,41.8463265 C23.5548996,40.2434359 23.0817488,38.1473504 23.0817488,35.5580672 C23.0817488,32.8454838 23.7126171,30.4103264 24.9743522,28.2525895 C26.2360887,26.0948525 27.8921167,24.2916017 29.942436,22.842837 C31.9927554,21.3940751 34.3585096,20.3306195 37.0396987,19.6524701 C39.7208878,18.9743264 42.5124778,18.7893776 45.4144686,19.0976237 C47.307072,19.2825725 49.1050452,19.7757674 50.8083883,20.5772141 C52.5117313,21.378658 54.025814,22.3650535 55.3506364,23.536395 C56.6754587,24.7077365 57.7479321,26.0486153 58.5680621,27.5590315 C59.3881922,29.0693714 59.8928845,30.6260248 60.0821448,32.2289887 C60.2714052,33.7085792 60.2714052,35.2344068 60.0821448,36.8064716 C59.8928845,38.3785364 59.5459053,39.9351898 59.041213,41.4764289 C58.5365206,43.017668 57.8898773,44.4356098 57.1012945,45.7302514 C56.3127117,47.024893 55.3506364,48.1345858 54.2150743,49.0593298 L54.2150743,49.0593298 Z" id="circlelink" fill="#FFFFFF"></path>
                </g>
            </g>
        </g>
    </g>
</svg>