<?xml version="1.0" encoding="UTF-8" standalone="no"?>
<svg width="77px" height="80px" viewBox="0 0 77 80" version="1.1" xmlns="http://www.w3.org/2000/svg" xmlns:xlink="http://www.w3.org/1999/xlink" xmlns:sketch="http://www.bohemiancoding.com/sketch/ns">
    <!-- Generator: Sketch 3.2.2 (9983) - http://www.bohemiancoding.com/sketch -->
    <title>social-twitter</title>
    <desc>Created with Sketch.</desc>
    <defs></defs>
    <g id="--styleguide" stroke="none" stroke-width="1" fill="none" fill-rule="evenodd" sketch:type="MSPage">
        <g id="--exported-assets" sketch:type="MSArtboardGroup" transform="translate(-1132.000000, -534.000000)">
            <g id="Social-Row" sketch:type="MSLayerGroup" transform="translate(918.000000, 483.000000)">
                <g id="social-twitter" transform="translate(214.000000, 51.000000)" sketch:type="MSShapeGroup">
                    <path d="M38.454112,0 C33.1311085,0 28.1446157,1.0488677 23.4946365,3.1466031 C18.8446559,5.2443385 14.7759237,8.10488677 11.2884386,11.7282479 C7.80095352,15.3516091 5.0476758,19.5788618 3.02860548,24.4100119 C1.00953516,29.2411591 0,34.4219309 0,39.9523242 C0,45.4827175 1.00953516,50.6793802 3.02860548,55.5423123 C5.0476758,60.4052443 7.80095352,64.6483909 11.2884386,68.2717521 C14.7759237,71.8951132 18.8446559,74.7556615 23.4946365,76.8533969 C28.1446157,78.9511323 33.1311085,80 38.454112,80 C43.7771156,80 48.7789035,78.9511323 53.4594756,76.8533969 C58.1400477,74.7556615 62.2240763,71.8951132 65.7115614,68.2717521 C69.1990465,64.6483909 71.9523242,60.4052443 73.9713945,55.5423123 C75.9904648,50.6793802 77,45.4827175 77,39.9523242 C77,34.4219309 75.9904648,29.2411591 73.9713945,24.4100119 C71.9523242,19.5788618 69.1990465,15.3516091 65.7115614,11.7282479 C62.2240763,8.10488677 58.1400477,5.2443385 53.4594756,3.1466031 C48.7789035,1.0488677 43.7771156,0 38.454112,0 L38.454112,0 Z" id="white" fill="#82B4C2"></path>
                    <path d="M59.4068231,31.3500597 L59.4068231,32.5925926 C59.4068231,35.7785432 58.8057976,39.0123155 57.6037406,42.2939068 C56.4016837,45.5754675 54.6460508,48.5384304 52.3368418,51.1827957 C50.0276328,53.8271537 47.164842,55.9936217 43.7484752,57.6821983 C40.3321084,59.3707676 36.4096121,60.2150538 31.9809894,60.2150538 C29.2605502,60.2150538 26.6508255,59.832736 24.1518155,59.0681004 C21.6528069,58.3034648 19.3277795,57.22023 17.1767332,55.818399 C17.5563295,55.8821192 17.9359258,55.9299089 18.3155221,55.9617682 C18.6951185,55.9936276 19.1063473,56.0095579 19.5492102,56.0095579 C21.7634998,56.0095579 23.8987291,55.6431705 25.954898,54.9103943 C28.0110437,54.177618 29.8615757,53.1421744 31.5064941,51.8040621 C29.3554492,51.8040621 27.4732832,51.1668653 25.8599989,49.8924731 C24.2467146,48.6180809 23.1237426,47.0250896 22.4910816,45.1135006 C22.8074114,45.1772207 23.1079256,45.2250104 23.3926228,45.2568698 C23.6773201,45.2887291 23.9778329,45.3046595 24.2941641,45.3046595 C24.7370255,45.3046595 25.1640713,45.2728002 25.5753017,45.20908 C25.986532,45.1453599 26.4135778,45.0497805 26.8564392,44.9223417 C24.6421496,44.4763038 22.7916176,43.3771416 21.3048431,41.6248507 C19.8180904,39.8725598 19.0747148,37.7857437 19.0747148,35.3643967 L19.0747148,35.2688172 C20.3399948,35.9694862 21.7951135,36.3836648 23.4400724,36.5113501 C22.1747518,35.6192742 21.1466775,34.4563919 20.3558523,33.0227001 C19.5650272,31.5890084 19.1696139,30.0438082 19.1696139,28.3870968 C19.1696139,26.602948 19.6124767,24.9780973 20.498201,23.5125448 C22.9023105,26.5073686 25.8125493,28.8968548 29.2289162,30.6810036 C32.645283,32.4651524 36.3463471,33.4528076 40.3321084,33.6439665 C40.2688433,33.3253674 40.2213937,32.9749104 40.1897597,32.5925926 C40.1581257,32.2102748 40.1423102,31.827957 40.1423102,31.4456392 C40.1423102,30.1075269 40.3953734,28.8490651 40.9015028,27.6702509 C41.4076322,26.4914367 42.0877413,25.4559946 42.941833,24.5639188 C43.7959247,23.6718429 44.8081806,22.9709289 45.9786035,22.4611708 C47.1490265,21.9514128 48.39853,21.6965352 49.7271171,21.6965352 C51.1822344,21.6965352 52.5108215,21.9832736 53.7128784,22.5567503 C54.9149353,23.130227 55.9588252,23.8630018 56.844548,24.7550777 C57.920069,24.5639188 58.9639588,24.2612515 59.9762176,23.8470729 C60.9884764,23.4328943 61.9690983,22.9709289 62.918089,22.4611708 C62.6017607,23.5444056 62.0639973,24.5479898 61.3048047,25.4719235 C60.5456121,26.3958573 59.6598893,27.1764247 58.6476305,27.8136201 C59.6598893,27.6861798 60.6246927,27.4950209 61.5420524,27.2401434 C62.4594121,26.9852658 63.3609533,26.6666667 64.2466761,26.2843489 C62.8548211,28.2596565 61.2415367,29.9482288 59.4068231,31.3500597 L59.4068231,31.3500597 Z" id="circletwitterbird" fill="#FFFFFF"></path>
                </g>
            </g>
        </g>
    </g>
</svg>