<?xml version="1.0" encoding="UTF-8" standalone="no"?>
<svg width="77px" height="80px" viewBox="0 0 77 80" version="1.1" xmlns="http://www.w3.org/2000/svg" xmlns:xlink="http://www.w3.org/1999/xlink" xmlns:sketch="http://www.bohemiancoding.com/sketch/ns">
    <!-- Generator: Sketch 3.2.2 (9983) - http://www.bohemiancoding.com/sketch -->
    <title>social-sheet</title>
    <desc>Created with Sketch.</desc>
    <defs></defs>
    <g id="--styleguide" stroke="none" stroke-width="1" fill="none" fill-rule="evenodd" sketch:type="MSPage">
        <g id="--exported-assets" sketch:type="MSArtboardGroup" transform="translate(-1443.000000, -534.000000)">
            <g id="Social-Row" sketch:type="MSLayerGroup" transform="translate(918.000000, 483.000000)">
                <g id="social-sheet" transform="translate(525.000000, 51.000000)" sketch:type="MSShapeGroup">
                    <path d="M38.454112,0 C33.1311085,0 28.1446157,1.0488677 23.4946365,3.1466031 C18.8446559,5.2443385 14.7759237,8.10488677 11.2884386,11.7282479 C7.80095352,15.3516091 5.0476758,19.5788618 3.02860548,24.4100119 C1.00953516,29.2411591 0,34.4219309 0,39.9523242 C0,45.4827175 1.00953516,50.6793802 3.02860548,55.5423123 C5.0476758,60.4052443 7.80095352,64.6483909 11.2884386,68.2717521 C14.7759237,71.8951132 18.8446559,74.7556615 23.4946365,76.8533969 C28.1446157,78.9511323 33.1311085,80 38.454112,80 C43.7771156,80 48.7789035,78.9511323 53.4594756,76.8533969 C58.1400477,74.7556615 62.2240763,71.8951132 65.7115614,68.2717521 C69.1990465,64.6483909 71.9523242,60.4052443 73.9713945,55.5423123 C75.9904648,50.6793802 77,45.4827175 77,39.9523242 C77,34.4219309 75.9904648,29.2411591 73.9713945,24.4100119 C71.9523242,19.5788618 69.1990465,15.3516091 65.7115614,11.7282479 C62.2240763,8.10488677 58.1400477,5.2443385 53.4594756,3.1466031 C48.7789035,1.0488677 43.7771156,0 38.454112,0 L38.454112,0 Z" id="white-4" fill="#A390B4"></path>
                    <path d="M39.3365575,44.0816327 L40.9723736,44.0816327 L40.9723736,20.2035728 L46.5161545,25.6229905 L47.6726765,24.4924127 L40.1544656,17.1428571 L32.6362547,24.4924127 L33.7927767,25.6229905 L39.3365575,20.2035728 L39.3365575,44.0816327 Z M44.0121406,30.2040816 L54.0364219,30.2040816 L54.0364219,57.9591837 L25.6342917,57.9591837 L25.6342917,30.2040816 L35.6585729,30.2040816 L35.6585729,28.5714286 L23.9635781,28.5714286 L23.9635781,59.5918367 L55.7071354,59.5918367 L55.7071354,28.5714286 L44.0121406,28.5714286 L44.0121406,30.2040816 Z" id="circleothers-2" fill="#FFFFFF"></path>
                </g>
            </g>
        </g>
    </g>
</svg>