<?xml version="1.0" encoding="UTF-8" standalone="no"?>
<svg width="80px" height="80px" viewBox="0 0 80 80" version="1.1" xmlns="http://www.w3.org/2000/svg" xmlns:xlink="http://www.w3.org/1999/xlink" xmlns:sketch="http://www.bohemiancoding.com/sketch/ns">
    <!-- Generator: Sketch 3.2.2 (9983) - http://www.bohemiancoding.com/sketch -->
    <title>social-facebook</title>
    <desc>Created with Sketch.</desc>
    <defs></defs>
    <g id="--styleguide" stroke="none" stroke-width="1" fill="none" fill-rule="evenodd" sketch:type="MSPage">
        <g id="--exported-assets" sketch:type="MSArtboardGroup" transform="translate(-1029.000000, -534.000000)">
            <g id="Social-Row" sketch:type="MSLayerGroup" transform="translate(918.000000, 483.000000)">
                <g id="social-facebook" transform="translate(111.000000, 51.000000)" sketch:type="MSShapeGroup">
                    <path d="M39.9523242,0 C34.4219309,0 29.2411591,1.0488677 24.4100119,3.1466031 C19.5788632,5.2443385 15.3516091,8.10488677 11.7282479,11.7282479 C8.10488677,15.3516091 5.2443385,19.5788618 3.1466031,24.4100119 C1.0488677,29.2411591 0,34.4219309 0,39.9523242 C0,45.4827175 1.0488677,50.6793802 3.1466031,55.5423123 C5.2443385,60.4052443 8.10488677,64.6483909 11.7282479,68.2717521 C15.3516091,71.8951132 19.5788632,74.7556615 24.4100119,76.8533969 C29.2411591,78.9511323 34.4219309,80 39.9523242,80 C45.4827175,80 50.6793802,78.9511323 55.5423123,76.8533969 C60.4052443,74.7556615 64.6483909,71.8951132 68.2717521,68.2717521 C71.8951132,64.6483909 74.7556615,60.4052443 76.8533969,55.5423123 C78.9511323,50.6793802 80,45.4827175 80,39.9523242 C80,34.4219309 78.9511323,29.2411591 76.8533969,24.4100119 C74.7556615,19.5788618 71.8951132,15.3516091 68.2717521,11.7282479 C64.6483909,8.10488677 60.4052443,5.2443385 55.5423123,3.1466031 C50.6793802,1.0488677 45.4827175,0 39.9523242,0 L39.9523242,0 Z" id="white" fill="#5C79AF"></path>
                    <path d="M55.0178784,17.4493445 L55.0178784,27.4612634 L47.4851013,27.4612634 C47.0401281,27.4612634 46.5156943,27.6837515 45.9117998,28.1287247 C45.3079053,28.5736979 45.0059595,29.1775924 45.0059595,29.9404052 L45.0059595,32.5148987 L52.443385,32.5148987 L52.443385,42.431466 L45.0059595,42.431466 L45.0059595,62.4553039 L34.9940405,62.4553039 L34.9940405,42.431466 L27.4612634,42.431466 L27.4612634,32.5148987 L34.9940405,32.5148987 L34.9940405,27.4612634 C34.9940405,26.2534861 35.2800954,25.0457 35.852205,23.8379023 C36.4243147,22.6301162 37.2348033,21.5494636 38.283671,20.5959476 C39.3325387,19.6424315 40.5562187,18.8796186 41.954708,18.3075089 C43.3531973,17.7353993 44.878823,17.4493445 46.5315852,17.4493445 L55.0178784,17.4493445 Z" id="circlefacebook" fill="#FFFFFF"></path>
                </g>
            </g>
        </g>
    </g>
</svg>