<?xml version="1.0" encoding="UTF-8" standalone="no"?>
<svg width="80px" height="80px" viewBox="0 0 80 80" version="1.1" xmlns="http://www.w3.org/2000/svg" xmlns:xlink="http://www.w3.org/1999/xlink" xmlns:sketch="http://www.bohemiancoding.com/sketch/ns">
    <!-- Generator: Sketch 3.2.2 (9983) - http://www.bohemiancoding.com/sketch -->
    <title>social-email</title>
    <desc>Created with Sketch.</desc>
    <defs></defs>
    <g id="--styleguide" stroke="none" stroke-width="1" fill="none" fill-rule="evenodd" sketch:type="MSPage">
        <g id="--exported-assets" sketch:type="MSArtboardGroup" transform="translate(-918.000000, -534.000000)">
            <g id="Social-Row" sketch:type="MSLayerGroup" transform="translate(918.000000, 483.000000)">
                <g id="social-email" transform="translate(0.000000, 51.000000)" sketch:type="MSShapeGroup">
                    <ellipse id="Path" fill="#7175A1" cx="39.7790989" cy="39.5959596" rx="39.7790989" ry="39.5959596"></ellipse>
                    <path d="M55.9393578,24.7474747 L26.1050337,24.7474747 C23.3590327,24.7474747 21.1326463,26.9636111 21.1326463,29.6969697 L21.1326463,49.4949495 C21.1326463,52.2283081 23.3590327,54.4444444 26.1050337,54.4444444 L55.9393578,54.4444444 C58.6853588,54.4444444 60.9117452,52.2283081 60.9117452,49.4949495 L60.9117452,29.6969697 C60.9117452,26.9636111 58.6853588,24.7474747 55.9393578,24.7474747 Z M55.9393578,37.1212121 C55.9393578,38.4872727 54.8255431,39.5959596 53.4531642,39.5959596 L48.4807768,39.5959596 C47.1083979,39.5959596 45.9945831,38.4872727 45.9945831,37.1212121 L45.9945831,32.1717172 C45.9945831,30.8056566 47.1083979,29.6969697 48.4807768,29.6969697 L53.4531642,29.6969697 C54.8255431,29.6969697 55.9393578,30.8056566 55.9393578,32.1717172 L55.9393578,37.1212121 Z M42.2652926,44.5454545 L27.3481305,44.5454545 C26.6606979,44.5454545 26.1050337,43.9923485 26.1050337,43.3080808 C26.1050337,42.6250505 26.6606979,42.0707071 27.3481305,42.0707071 L42.2652926,42.0707071 C42.9527251,42.0707071 43.5083894,42.6250505 43.5083894,43.3080808 C43.5083894,43.9923485 42.9527251,44.5454545 42.2652926,44.5454545 Z M42.2652926,49.4949495 L27.3481305,49.4949495 C26.6606979,49.4949495 26.1050337,48.9418434 26.1050337,48.2575758 C26.1050337,47.5733081 26.6606979,47.020202 27.3481305,47.020202 L42.2652926,47.020202 C42.9527251,47.020202 43.5083894,47.5733081 43.5083894,48.2575758 C43.5083894,48.9418434 42.9527251,49.4949495 42.2652926,49.4949495 Z" id="email" fill="#FFFFFF"></path>
                </g>
            </g>
        </g>
    </g>
</svg>