<?xml version="1.0" encoding="UTF-8" standalone="no"?>
<svg width="80px" height="80px" viewBox="0 0 80 80" version="1.1" xmlns="http://www.w3.org/2000/svg" xmlns:xlink="http://www.w3.org/1999/xlink" xmlns:sketch="http://www.bohemiancoding.com/sketch/ns">
    <!-- Generator: Sketch 3.2.2 (9983) - http://www.bohemiancoding.com/sketch -->
    <title>social-readlater</title>
    <desc>Created with Sketch.</desc>
    <defs></defs>
    <g id="--styleguide" stroke="none" stroke-width="1" fill="none" fill-rule="evenodd" sketch:type="MSPage">
        <g id="--exported-assets" sketch:type="MSArtboardGroup" transform="translate(-1340.000000, -534.000000)">
            <g id="Social-Row" sketch:type="MSLayerGroup" transform="translate(918.000000, 483.000000)">
                <g id="social-readlater" transform="translate(422.000000, 51.000000)" sketch:type="MSShapeGroup">
                    <path d="M39.9523242,0 C34.4219309,0 29.2411591,1.0488677 24.4100119,3.1466031 C19.5788632,5.2443385 15.3516091,8.10488677 11.7282479,11.7282479 C8.10488677,15.3516091 5.2443385,19.5788618 3.1466031,24.4100119 C1.0488677,29.2411591 0,34.4219309 0,39.9523242 C0,45.4827175 1.0488677,50.6793802 3.1466031,55.5423123 C5.2443385,60.4052443 8.10488677,64.6483909 11.7282479,68.2717521 C15.3516091,71.8951132 19.5788632,74.7556615 24.4100119,76.8533969 C29.2411591,78.9511323 34.4219309,80 39.9523242,80 C45.4827175,80 50.6793802,78.9511323 55.5423123,76.8533969 C60.4052443,74.7556615 64.6483909,71.8951132 68.2717521,68.2717521 C71.8951132,64.6483909 74.7556615,60.4052443 76.8533969,55.5423123 C78.9511323,50.6793802 80,45.4827175 80,39.9523242 C80,34.4219309 78.9511323,29.2411591 76.8533969,24.4100119 C74.7556615,19.5788618 71.8951132,15.3516091 68.2717521,11.7282479 C64.6483909,8.10488677 60.4052443,5.2443385 55.5423123,3.1466031 C50.6793802,1.0488677 45.4827175,0 39.9523242,0 L39.9523242,0 Z" id="white-3" fill="#FAB71D"></path>
                    <g id="circle-readlater" transform="translate(9.000000, 9.000000)">
                        <path d="M45.375,29.5625 L48.25,29.5625 L48.25,32.4375 L45.375,32.4375 L45.375,29.5625 Z M41.72375,21.88625 L39.73425,19.8924375 L41.72375,17.9000625 L43.71325,19.8924375 L41.72375,21.88625 L41.72375,21.88625 Z M41.3456875,42.776 L39.3130625,40.743375 L41.3456875,38.71075 L43.3783125,40.743375 L41.3456875,42.776 L41.3456875,42.776 Z M32.4375,31.0345 C32.4375,31.828 31.7949375,32.4705625 31,32.4705625 L18.0625,32.4705625 C17.2675625,32.4705625 16.625,31.828 16.625,31.0345 C16.625,30.241 17.2675625,29.5955625 18.0625,29.5955625 L29.5625,29.5955625 L29.5625,15.1875 C29.5625,14.3925625 30.2065,13.75 31,13.75 C31.7949375,13.75 32.4375,14.3925625 32.4375,15.1875 L32.4375,31.0345 L32.4375,31.0345 Z M29.5625,45.375 L32.4375,45.375 L32.4375,48.25 L29.5625,48.25 L29.5625,45.375 Z M19.6681875,42.8148125 L17.6786875,40.821 L19.6681875,38.8271875 L21.6576875,40.821 L19.6681875,42.8148125 L19.6681875,42.8148125 Z M19.899625,17.9316875 L21.93225,19.9643125 L19.899625,21.9969375 L17.867,19.9643125 L19.899625,17.9316875 L19.899625,17.9316875 Z" id="ic_readlater" fill="#FFFFFF"></path>
                        <path d="M30.9630513,0 C26.6769964,0 22.6618983,0.812872467 18.9177592,2.4386174 C15.173619,4.06436234 11.897497,6.28128725 9.08939213,9.08939213 C6.28128725,11.897497 4.06436234,15.1736179 2.4386174,18.9177592 C0.812872467,22.6618983 0,26.6769964 0,30.9630513 C0,35.2491061 0.812872467,39.2765197 2.4386174,43.045292 C4.06436234,46.8140644 6.28128725,50.102503 9.08939213,52.9106079 C11.897497,55.7187128 15.173619,57.9356377 18.9177592,59.5613826 C22.6618983,61.1871275 26.6769964,62 30.9630513,62 C35.2491061,62 39.2765197,61.1871275 43.045292,59.5613826 C46.8140644,57.9356377 50.102503,55.7187128 52.9106079,52.9106079 C55.7187128,50.102503 57.9356377,46.8140644 59.5613826,43.045292 C61.1871275,39.2765197 62,35.2491061 62,30.9630513 C62,26.6769964 61.1871275,22.6618983 59.5613826,18.9177592 C57.9356377,15.1736179 55.7187128,11.897497 52.9106079,9.08939213 C50.102503,6.28128725 46.8140644,4.06436234 43.045292,2.4386174 C39.2765197,0.812872467 35.2491061,0 30.9630513,0 L30.9630513,0 Z" id="white-5" stroke="#FFFFFF" stroke-width="2"></path>
                    </g>
                </g>
            </g>
        </g>
    </g>
</svg>